<svg class="svg-logo-2015" width="260px" height="457px" viewBox="0 0 260 457" version="1.1" xmlns="http://www.w3.org/2000/svg" xmlns:xlink="http://www.w3.org/1999/xlink" xmlns:sketch="http://www.bohemiancoding.com/sketch/ns">
  <g id="Page-2" stroke="none" stroke-width="1" fill="none" fill-rule="evenodd" sketch:type="MSPage">
    <g id="upper-copy-4" sketch:type="MSLayerGroup" fill="#56A3A6">
      <path d="M205.729937,18.5055593 L200.078692,26.8236541 C240.024644,50.2928503 258.535396,96.1624596 245.082932,138.361379 C238.721752,158.340018 224.377835,174.812087 204.697304,184.755373 C185.008705,194.690653 162.343219,196.900272 140.879782,190.975931 C105.971949,181.348877 86.0009897,147.107788 96.3474876,114.62799 C104.451236,89.1733386 133.316553,74.5986595 160.673258,82.1521941 C171.007655,85.0062853 179.534944,91.4229869 184.669872,100.237445 C189.804801,109.051904 190.950378,119.195336 187.884749,128.802375 C182.991844,144.165632 165.590365,152.956073 149.084374,148.404738 C136.438654,144.918184 129.198122,132.509091 132.949484,120.744471 C134.324984,116.433312 137.414815,112.882711 141.662324,110.745145 C145.9058,108.591567 150.798706,108.115218 155.417318,109.400159 C158.854049,110.344851 161.681689,112.478415 163.391987,115.408562 C165.098251,118.334706 165.477421,121.705175 164.452856,124.899516 C162.94021,129.650997 157.551157,132.376995 152.448498,130.967962 L149.443375,140.398872 C160.136773,143.353037 171.427162,137.65286 174.593634,127.693563 C176.412843,121.977375 175.735177,115.948957 172.685683,110.717124 C169.632155,105.473282 164.5658,101.658487 158.418407,99.961243 C151.0851,97.9397619 143.340353,98.6923133 136.620172,102.0868 C129.883855,105.489294 124.982883,111.117417 122.808706,117.942418 C117.403518,134.910851 127.842792,152.803962 146.087318,157.839651 C168.171948,163.932115 191.470728,152.163492 198.025527,131.608431 C201.893867,119.475541 200.449794,106.670159 193.967602,95.542005 C189.671688,88.1886171 183.504126,82.1602 176.049808,77.8770616 C171.568342,45.6814715 152.109665,17.3006765 122.675593,0 L117.028382,8.31809479 C139.710003,21.6478617 155.861027,42.2149315 162.750625,66.0003594 C154.731585,56.765593 145.086955,48.7397123 134.369354,42.4430987 L128.734244,50.7611935 C137.890794,56.1491413 146.167992,62.9501245 153.202804,70.7318262 C138.568459,69.130653 124.164037,72.4731021 112.260522,79.5783082 C106.121197,67.397383 94.612987,58.0705491 80.6280716,54.2157246 C47.6806274,45.1250638 12.9220419,62.677925 3.15236636,93.3403918 C-3.07973467,112.902725 0.0181640953,134.062229 11.6514194,151.386923 L11.8813415,151.25883 C9.53371512,183.774654 31.5538054,214.709321 66.5181108,224.352386 C99.0420141,233.326962 133.893375,225.461199 158.374036,203.837355 C176.065942,204.986196 193.76995,201.459612 209.739457,193.397705 C231.900727,182.209508 248.051751,163.65191 255.219676,141.155427 C270.007302,94.7534272 249.649106,44.3204742 205.729937,18.5055593 Z M96.3152178,172.118113 C90.341275,173.951457 83.9276565,174.059536 77.7278252,172.342278 C65.0861393,168.859726 57.8536752,156.450634 61.5929358,144.682011 C62.9724688,140.378858 66.0623002,136.824253 70.3057761,134.682684 C74.2386554,132.697229 78.7281883,132.160836 83.0563724,133.105528 C83.1652829,140.554987 84.5690183,147.840325 87.0658924,154.745384 C85.1902115,155.369842 83.1007434,155.461909 81.0919496,154.909504 L78.0827928,164.344418 C82.4795501,165.5493 87.0497576,165.329139 91.139952,163.860063 C92.6646991,166.706148 94.3911322,169.472175 96.3152178,172.118113 Z M13.2931444,96.1304362 C21.40496,70.6717822 50.2662434,56.1011061 77.6269821,63.6466348 C89.4659572,66.9130281 99.0702502,75.1310496 103.63239,85.7748485 C99.7963202,89.0772682 96.3837911,92.8440282 93.507747,97.0190873 C93.1084085,96.8989993 92.7211712,96.7628996 92.3258664,96.6628262 C92.0677082,96.5827676 91.8014825,96.5267265 91.5312231,96.4586767 C89.2239339,89.329453 83.1572155,83.6052588 75.3721313,81.4676925 C68.0388241,79.4382055 60.2940772,80.1987628 53.5658283,83.589247 C46.8375794,86.9837342 41.9366068,92.611858 39.7624304,99.4448647 C39.1896419,101.266199 38.7862696,103.131566 38.5563474,105.004939 C27.6209261,112.210218 19.0976708,122.701905 14.9469705,135.511291 C9.80800824,123.002125 9.13841033,109.163986 13.2931444,96.1304362 Z M78.3611196,94.3811544 C69.1319629,93.868779 60.0802899,95.2778114 51.7627544,98.3440581 C53.4004457,95.8021956 55.7319372,93.6926499 58.6079813,92.2435882 C62.8554909,90.0940132 67.7403287,89.6176641 72.3710419,90.9026056 C74.7025334,91.539072 76.7516644,92.7759783 78.3611196,94.3811544 Z M69.5192002,214.921476 C34.6194344,205.290419 14.6484751,171.041324 24.9909392,138.569532 C33.0180467,113.371069 61.3831822,98.8524306 88.4897964,105.889587 C87.6225461,107.810995 86.8601726,109.788444 86.2067096,111.829939 C85.0006266,115.612711 84.1656461,119.407492 83.6614308,123.190263 C77.3647902,122.205542 70.9552054,123.166246 65.2636231,126.036349 C58.539408,129.430836 53.6384353,135.066966 51.4561915,141.891966 C46.0510036,158.856396 56.490277,176.75351 74.7186683,181.785197 C84.1172414,184.375094 94.2257496,183.758643 103.152377,180.184023 C112.23632,189.44681 124.038992,196.596049 137.866592,200.410844 C140.048836,201.015287 142.255282,201.519656 144.473829,201.975991 C123.329056,217.119086 95.5891478,222.110744 69.5192002,214.921476 Z" id="swirl-copy-3" sketch:type="MSShapeGroup"></path>
      <path d="M0.575619206,313.906602 L0.575619206,261.309397 L4.24519164,261.309397 L4.24519164,313.906602 L0.575619206,313.906602 Z M0,256.524562 C1.75085051,254.629806 3.48368683,252.573187 5.19856095,250.354644 C6.91343508,248.1361 8.0826499,246.451232 8.70624049,245.299988 L13.7788847,245.299988 L13.7788847,245.911583 C12.9154516,247.158764 11.4464381,248.813653 9.37180019,250.876299 C7.29716227,252.938945 5.01269639,255.013551 2.51833403,257.100182 L0,257.100182 L0,256.524562 Z M42.4878926,303.725337 C42.4878926,307.227038 41.1567865,309.91923 38.4945344,311.801994 C35.8322822,313.684758 32.054819,314.626126 27.1620313,314.626126 C21.933464,314.626126 17.7842504,313.822665 14.7142659,312.21572 L14.7142659,308.366267 C18.6476835,310.332976 22.7968971,311.316315 27.1620313,311.316315 C31.0234961,311.316315 33.9555271,310.674746 35.9582123,309.391589 C37.9608974,308.108431 38.962225,306.399579 38.962225,304.26498 C38.962225,302.298271 38.1647605,300.643383 36.5698077,299.300265 C34.9748548,297.957146 32.3546144,296.638032 28.7090079,295.342882 C24.7995746,293.927812 22.0534187,292.710629 20.470458,291.691298 C18.8874973,290.671967 17.6942986,289.52074 16.8908261,288.237583 C16.0873536,286.954425 15.6856234,285.389476 15.6856234,283.542689 C15.6856234,280.61661 16.9147979,278.302164 19.3731839,276.599282 C21.8315699,274.8964 25.2672627,274.044972 29.6803653,274.044972 C33.9015939,274.044972 37.9069042,274.83644 41.6964162,276.419401 L40.3652968,279.657259 C36.5278162,278.074298 32.966208,277.28283 29.6803653,277.28283 C26.4904596,277.28283 23.9601588,277.810476 22.089387,278.865783 C20.2186152,279.92109 19.2832434,281.384107 19.2832434,283.254879 C19.2832434,285.293541 20.0087562,286.924445 21.4598035,288.147642 C22.9108509,289.370839 25.7469463,290.737921 29.9681749,292.248929 C33.4938602,293.520095 36.0601368,294.665326 37.6670818,295.684656 C39.2740268,296.703987 40.4792174,297.86121 41.2826899,299.15636 C42.0861624,300.451509 42.4878926,301.974487 42.4878926,303.725337 L42.4878926,303.725337 Z M56.1228726,313.906602 L52.5612287,313.906602 L52.5612287,257.927634 L56.1228726,257.927634 L56.1228726,313.906602 Z M85.0117615,314.626126 C79.3274934,314.626126 74.896469,312.875302 71.7185554,309.373601 C68.5406418,305.8719 66.9517089,300.967193 66.9517089,294.659335 C66.9517089,288.423429 68.4866781,283.428783 71.5566625,279.675247 C74.626647,275.921712 78.7638686,274.044972 83.9684516,274.044972 C88.5734283,274.044972 92.2069882,275.651893 94.8692403,278.865783 C97.5314925,282.079673 98.8625986,286.444741 98.8625986,291.96112 L98.8625986,294.839216 L70.6932337,294.839216 C70.7412022,300.211688 71.9943607,304.312934 74.4527466,307.143076 C76.9111326,309.973218 80.430769,311.388268 85.0117615,311.388268 C87.242297,311.388268 89.2029803,311.232373 90.8938702,310.920577 C92.5847601,310.608782 94.7253226,309.937233 97.315622,308.90591 L97.315622,312.143768 C95.1090707,313.103138 93.0704397,313.756699 91.1996679,314.104471 C89.3288961,314.452243 87.2662813,314.626126 85.0117615,314.626126 L85.0117615,314.626126 Z M83.9684516,277.210878 C80.2029238,277.210878 77.1809532,278.452044 74.9024491,280.934414 C72.6239451,283.416784 71.292839,286.996381 70.9090909,291.67331 L95.0850976,291.67331 C95.0850976,287.140286 94.1017579,283.596666 92.1350491,281.042343 C90.1683403,278.48802 87.4461684,277.210878 83.9684516,277.210878 L83.9684516,277.210878 Z M136.925419,313.906602 L136.925419,288.543381 C136.925419,284.609963 136.097974,281.749884 134.443061,279.963057 C132.788147,278.17623 130.221871,277.28283 126.744154,277.28283 C122.067224,277.28283 118.643524,278.464037 116.472949,280.826486 C114.302374,283.188935 113.217103,287.020362 113.217103,292.320882 L113.217103,313.906602 L109.655459,313.906602 L109.655459,274.800472 L112.67746,274.800472 L113.361007,280.160926 L113.576865,280.160926 C116.119195,276.083603 120.640159,274.044972 127.139892,274.044972 C136.014066,274.044972 140.451086,278.805775 140.451086,288.327523 L140.451086,313.906602 L136.925419,313.906602 Z M177.362668,303.725337 C177.362668,307.227038 176.031562,309.91923 173.36931,311.801994 C170.707057,313.684758 166.929594,314.626126 162.036806,314.626126 C156.808239,314.626126 152.659026,313.822665 149.589041,312.21572 L149.589041,308.366267 C153.522459,310.332976 157.671672,311.316315 162.036806,311.316315 C165.898271,311.316315 168.830302,310.674746 170.832987,309.391589 C172.835673,308.108431 173.837,306.399579 173.837,304.26498 C173.837,302.298271 173.039536,300.643383 171.444583,299.300265 C169.84963,297.957146 167.22939,296.638032 163.583783,295.342882 C159.67435,293.927812 156.928194,292.710629 155.345233,291.691298 C153.762272,290.671967 152.569074,289.52074 151.765601,288.237583 C150.962129,286.954425 150.560399,285.389476 150.560399,283.542689 C150.560399,280.61661 151.789573,278.302164 154.247959,276.599282 C156.706345,274.8964 160.142038,274.044972 164.55514,274.044972 C168.776369,274.044972 172.781679,274.83644 176.571191,276.419401 L175.240072,279.657259 C171.402591,278.074298 167.840983,277.28283 164.55514,277.28283 C161.365235,277.28283 158.834934,277.810476 156.964162,278.865783 C155.09339,279.92109 154.158019,281.384107 154.158019,283.254879 C154.158019,285.293541 154.883531,286.924445 156.334579,288.147642 C157.785626,289.370839 160.621721,290.737921 164.84295,292.248929 C168.368635,293.520095 170.934912,294.665326 172.541857,295.684656 C174.148802,296.703987 175.353993,297.86121 176.157465,299.15636 C176.960938,300.451509 177.362668,301.974487 177.362668,303.725337 L177.362668,303.725337 Z M190.925695,296.745954 L210.892487,274.800472 L215.209631,274.800472 L199.811817,291.493429 L216.54075,313.906602 L212.259582,313.906602 L197.401411,294.155668 L190.997648,299.983812 L190.997648,313.906602 L187.436004,313.906602 L187.436004,257.927634 L190.997648,257.927634 L190.997648,285.98907 L190.745814,296.745954 L190.925695,296.745954 Z M226.182372,274.800472 L226.182372,300.127717 C226.182372,304.061135 227.009816,306.921214 228.664729,308.708041 C230.319643,310.494868 232.88592,311.388268 236.363636,311.388268 C241.016582,311.388268 244.440282,310.213057 246.634842,307.8626 C248.829401,305.512143 249.926664,301.686712 249.926664,296.386192 L249.926664,274.800472 L253.452332,274.800472 L253.452332,313.906602 L250.430331,313.906602 L249.782759,308.510172 L249.566902,308.510172 C247.024571,312.587495 242.503607,314.626126 236.003874,314.626126 C227.105716,314.626126 222.656704,309.865323 222.656704,300.343574 L222.656704,274.800472 L226.182372,274.800472 Z" id="Íslensku" sketch:type="MSShapeGroup"></path>
      <path d="M7.99941396,354.883525 L0,333.818402 L4.72346348,333.818402 L9.00886382,346.065123 C9.74532149,348.122126 10.1897289,349.785479 10.3420995,351.055234 L10.4944693,351.055234 C10.6087472,350.141011 11.0531546,348.477657 11.8277049,346.065123 L16.1131053,333.818402 L20.8746612,333.818402 L12.8371548,354.883525 L7.99941396,354.883525 Z M33.2737528,355.264449 C29.997786,355.264449 27.4360945,354.308973 25.5886016,352.397993 C23.7411086,350.487012 22.817376,347.855485 22.817376,344.503333 C22.817376,341.062298 23.6744475,338.357761 25.3886162,336.389642 C27.1027849,334.421522 29.4581444,333.437477 32.4547652,333.437477 C35.2355278,333.437477 37.4321703,334.281851 39.0447586,335.970625 C40.657347,337.659398 41.463629,339.983015 41.463629,342.941543 L41.463629,345.360413 L27.4265622,345.360413 C27.4900499,347.404718 28.0423849,348.976016 29.0835836,350.074354 C30.1247824,351.172691 31.591327,351.721852 33.4832613,351.721852 C34.7276208,351.721852 35.8862545,351.604401 36.9591971,351.369497 C38.0321398,351.134592 39.1844248,350.744148 40.4160867,350.198154 L40.4160867,353.835983 C39.3240978,354.356582 38.2194279,354.724805 37.1020438,354.940664 C35.9846598,355.156522 34.7085755,355.264449 33.2737528,355.264449 L33.2737528,355.264449 Z M32.4547652,336.827705 C31.0326401,336.827705 29.8930524,337.278461 29.0359681,338.179987 C28.1788837,339.081513 27.6678151,340.395689 27.5027471,342.122555 L37.0639514,342.122555 C37.0385563,340.382991 36.6195435,339.065641 35.8069006,338.170464 C34.9942577,337.275287 33.8768904,336.827705 32.4547652,336.827705 L32.4547652,336.827705 Z M57.1196249,337.208629 L51.9771445,337.208629 L51.9771445,354.883525 L47.4822357,354.883525 L47.4822357,337.208629 L44.015823,337.208629 L44.015823,335.113545 L47.4822357,333.742217 L47.4822357,332.370889 C47.4822357,329.88217 48.0663141,328.037879 49.2344883,326.837961 C50.4026625,325.638042 52.186641,325.038092 54.5864772,325.038092 C56.1609729,325.038092 57.7100503,325.298388 59.2337558,325.818988 L58.0528899,329.209215 C56.9482034,328.853684 55.8943229,328.675921 54.8912168,328.675921 C53.8754131,328.675921 53.1357921,328.990181 52.6723317,329.618709 C52.2088713,330.247238 51.9771445,331.190016 51.9771445,332.447073 L51.9771445,333.818402 L57.1196249,333.818402 L57.1196249,337.208629 Z M65.4999634,354.883525 L57.5005494,333.818402 L62.2240129,333.818402 L66.5094132,346.065123 C67.2458709,348.122126 67.6902783,349.785479 67.8426489,351.055234 L67.9950187,351.055234 C68.1092966,350.141011 68.553704,348.477657 69.3282543,346.065123 L73.6136547,333.818402 L78.3752106,333.818402 L70.3377042,354.883525 L65.4999634,354.883525 Z M90.7743022,355.264449 C87.4983354,355.264449 84.9366439,354.308973 83.089151,352.397993 C81.241658,350.487012 80.3179254,347.855485 80.3179254,344.503333 C80.3179254,341.062298 81.1749969,338.357761 82.8891656,336.389642 C84.6033343,334.421522 86.9586938,333.437477 89.9553146,333.437477 C92.7360772,333.437477 94.9327197,334.281851 96.545308,335.970625 C98.1578964,337.659398 98.9641784,339.983015 98.9641784,342.941543 L98.9641784,345.360413 L84.9271116,345.360413 C84.9905993,347.404718 85.5429343,348.976016 86.584133,350.074354 C87.6253318,351.172691 89.0918764,351.721852 90.9838107,351.721852 C92.2281702,351.721852 93.3868039,351.604401 94.4597465,351.369497 C95.5326892,351.134592 96.6849742,350.744148 97.9166361,350.198154 L97.9166361,353.835983 C96.8246472,354.356582 95.7199773,354.724805 94.6025932,354.940664 C93.4852092,355.156522 92.2091249,355.264449 90.7743022,355.264449 L90.7743022,355.264449 Z M89.9553146,336.827705 C88.5331895,336.827705 87.3936018,337.278461 86.5365175,338.179987 C85.6794331,339.081513 85.1683646,340.395689 85.0032965,342.122555 L94.5645008,342.122555 C94.5391057,340.382991 94.1200929,339.065641 93.30745,338.170464 C92.4948071,337.275287 91.3774398,336.827705 89.9553146,336.827705 L89.9553146,336.827705 Z M114.734452,333.437477 C115.635977,333.437477 116.378773,333.500964 116.96286,333.627939 L116.524797,337.799062 C115.889919,337.646692 115.229657,337.570508 114.543989,337.570508 C112.753635,337.570508 111.302963,338.154586 110.191927,339.32276 C109.080892,340.490934 108.525383,342.008268 108.525383,343.874808 L108.525383,354.883525 L104.04952,354.883525 L104.04952,333.818402 L107.554025,333.818402 L108.144458,337.532415 L108.373013,337.532415 C109.071378,336.275358 109.982413,335.278616 111.106146,334.542158 C112.229879,333.8057 113.439302,333.437477 114.734452,333.437477 L114.734452,333.437477 Z M139.551681,344.084316 C139.551681,347.626931 138.678738,350.375909 136.932825,352.331331 C135.186913,354.286753 132.720452,355.264449 129.533368,355.264449 C126.549444,355.264449 124.149644,354.401029 122.333895,352.674163 C120.518146,350.947297 119.610285,348.630029 119.610285,345.722291 C119.610285,342.789158 120.441962,340.468717 122.10534,338.760897 C123.768719,337.053077 125.997105,336.19918 128.790565,336.19918 C131.50784,336.19918 133.418792,336.903883 134.523478,338.31331 L134.675848,338.237125 C133.8886,335.837289 132.44745,333.646995 130.352355,331.666178 L125.590799,334.523112 L123.914732,331.989964 L127.800161,329.723463 C126.708172,328.974308 125.647943,328.326743 124.619442,327.780749 L126.219325,325 C127.996981,325.799945 129.63494,326.714155 131.13325,327.742656 L135.532928,325.114277 L137.208996,327.57124 L133.628306,329.723463 C135.558333,331.50112 137.028052,333.596184 138.037506,336.008717 C139.046961,338.421251 139.551681,341.11309 139.551681,344.084316 L139.551681,344.084316 Z M134.980588,344.941396 C134.980588,343.328808 134.501262,342.046375 133.542598,341.094059 C132.583933,340.141743 131.272931,339.665592 129.609552,339.665592 C127.692223,339.665592 126.308211,340.186184 125.457476,341.227383 C124.60674,342.268581 124.181379,343.792264 124.181379,345.798476 C124.181379,347.741201 124.651181,349.226791 125.590799,350.255293 C126.530418,351.283794 127.869989,351.798037 129.609552,351.798037 C131.488789,351.798037 132.853755,351.220307 133.704491,350.06483 C134.555226,348.909354 134.980588,347.201559 134.980588,344.941396 L134.980588,344.941396 Z M149.017654,354.883525 L144.541792,354.883525 L144.541792,325.247601 L149.017654,325.247601 L149.017654,354.883525 Z M168.597172,354.883525 L167.702,351.950407 L167.54963,351.950407 C166.533826,353.232859 165.511689,354.105802 164.483188,354.569262 C163.454687,355.032723 162.134162,355.264449 160.521574,355.264449 C158.451874,355.264449 156.836135,354.705766 155.67431,353.588382 C154.512484,352.470998 153.93158,350.890177 153.93158,348.845872 C153.93158,346.674592 154.737862,345.036633 156.350451,343.931946 C157.963039,342.82726 160.419977,342.224135 163.721339,342.122555 L167.359168,342.008278 L167.359168,340.884551 C167.359168,339.538611 167.044908,338.532345 166.41638,337.865724 C165.787851,337.199103 164.813329,336.865797 163.492784,336.865797 C162.413493,336.865797 161.378659,337.024514 160.38825,337.341953 C159.397841,337.659392 158.44554,338.033964 157.531316,338.46568 L156.083803,335.265915 C157.226583,334.66913 158.477272,334.215199 159.835909,333.90411 C161.194547,333.59302 162.47698,333.437477 163.683247,333.437477 C166.362429,333.437477 168.384483,334.021555 169.749469,335.18973 C171.114455,336.357904 171.796938,338.192672 171.796938,340.694088 L171.796938,354.883525 L168.597172,354.883525 Z M161.930994,351.836129 C163.55628,351.836129 164.860933,351.382199 165.844993,350.474324 C166.829053,349.56645 167.321075,348.29354 167.321075,346.655556 L167.321075,344.827119 L164.616512,344.941396 C162.508719,345.017582 160.975513,345.369933 160.016849,345.998462 C159.058184,346.62699 158.578859,347.588815 158.578859,348.883965 C158.578859,349.823583 158.858201,350.550507 159.416893,351.064757 C159.975585,351.579008 160.81361,351.836129 161.930994,351.836129 L161.930994,351.836129 Z M192.900154,354.883525 L192.271628,352.121823 L192.043074,352.121823 C191.420894,353.099534 190.535253,353.867724 189.386126,354.426416 C188.236998,354.985108 186.925996,355.264449 185.45308,355.264449 C182.900874,355.264449 180.99627,354.629582 179.739213,353.359827 C178.482156,352.090073 177.853637,350.166423 177.853637,347.588821 L177.853637,333.818402 L182.367592,333.818402 L182.367592,346.807926 C182.367592,348.420514 182.697723,349.629938 183.357996,350.436232 C184.018268,351.242526 185.053103,351.645667 186.46253,351.645667 C188.341767,351.645667 189.722604,351.083809 190.605084,349.960076 C191.487563,348.836343 191.928796,346.95396 191.928796,344.312871 L191.928796,333.818402 L196.423705,333.818402 L196.423705,354.883525 L192.900154,354.883525 Z M221.336166,354.883525 L216.841257,354.883525 L216.841257,341.932093 C216.841257,340.306807 216.5143,339.09421 215.860377,338.294264 C215.206453,337.494319 214.168444,337.094352 212.746319,337.094352 C210.854385,337.094352 209.470373,337.653036 208.594242,338.77042 C207.718112,339.887804 207.280053,341.760664 207.280053,344.389056 L207.280053,354.883525 L202.80419,354.883525 L202.80419,333.818402 L206.308695,333.818402 L206.937221,336.580104 L207.165775,336.580104 C207.800653,335.576998 208.702165,334.802459 209.870339,334.256465 C211.038513,333.71047 212.333644,333.437477 213.755769,333.437477 C218.809392,333.437477 221.336166,336.008692 221.336166,341.151198 L221.336166,354.883525 Z M232.040144,354.883525 L227.564281,354.883525 L227.564281,333.818402 L232.040144,333.818402 L232.040144,354.883525 Z M227.297634,328.237858 C227.297634,327.437913 227.516663,326.822091 227.954729,326.390374 C228.392794,325.958658 229.018139,325.742803 229.830782,325.742803 C230.618029,325.742803 231.230677,325.958658 231.668742,326.390374 C232.106808,326.822091 232.325837,327.437913 232.325837,328.237858 C232.325837,328.999711 232.106808,329.599661 231.668742,330.037726 C231.230677,330.475792 230.618029,330.694821 229.830782,330.694821 C229.018139,330.694821 228.392794,330.475792 227.954729,330.037726 C227.516663,329.599661 227.297634,328.999711 227.297634,328.237858 L227.297634,328.237858 Z M256.97165,354.883525 L252.476742,354.883525 L252.476742,341.932093 C252.476742,340.306807 252.149785,339.09421 251.495861,338.294264 C250.841937,337.494319 249.803929,337.094352 248.381804,337.094352 C246.489869,337.094352 245.105857,337.653036 244.229727,338.77042 C243.353596,339.887804 242.915537,341.760664 242.915537,344.389056 L242.915537,354.883525 L238.439675,354.883525 L238.439675,333.818402 L241.94418,333.818402 L242.572705,336.580104 L242.80126,336.580104 C243.436137,335.576998 244.33765,334.802459 245.505824,334.256465 C246.673998,333.71047 247.969128,333.437477 249.391253,333.437477 C254.444877,333.437477 256.97165,336.008692 256.97165,341.151198 L256.97165,354.883525 Z" id="vefverðlaunin" sketch:type="MSShapeGroup"></path>
      <path d="M52.1367521,455.615385 L0,455.615385 L0,450.60114 L22.1652422,427.467236 C28.3950929,421.009464 32.7635202,416.071242 35.2706553,412.652422 C37.7777903,409.233601 39.6201271,405.966777 40.7977208,402.851852 C41.9753145,399.736926 42.5641026,396.470103 42.5641026,393.051282 C42.5641026,388.074999 40.9306906,384.029455 37.6638177,380.91453 C34.3969447,377.799605 30.1614695,376.242165 24.957265,376.242165 C18.0056632,376.242165 11.3580564,378.768256 5.01424501,383.820513 L1.93732194,379.888889 C8.88892365,374.038907 16.6001476,371.11396 25.0712251,371.11396 C32.3267219,371.11396 38.0341672,373.051263 42.1937322,376.925926 C46.3532972,380.800589 48.4330484,386.137668 48.4330484,392.937322 C48.4330484,398.445422 47.037051,403.773004 44.2450142,408.920228 C41.4529775,414.067452 36.3533134,420.420665 28.9458689,427.980057 L7.57834758,449.917379 L7.57834758,450.145299 L52.1367521,450.145299 L52.1367521,455.615385 Z M120.2849,413.735043 C120.2849,428.359997 118.053204,439.1861 113.589744,446.213675 C109.126283,453.241251 102.374214,456.754986 93.3333333,456.754986 C84.6343345,456.754986 78.024714,453.136788 73.5042735,445.900285 C68.983833,438.663781 66.7236467,427.942141 66.7236467,413.735043 C66.7236467,399.224049 68.917357,388.473919 73.3048433,381.48433 C77.6923296,374.494742 84.3684262,371 93.3333333,371 C102.108306,371 108.793899,374.618197 113.390313,381.854701 C117.986728,389.091204 120.2849,399.717879 120.2849,413.735043 L120.2849,413.735043 Z M72.8774929,413.735043 C72.8774929,426.650587 74.5678843,436.194651 77.9487179,442.367521 C81.3295516,448.540392 86.4577054,451.626781 93.3333333,451.626781 C100.512856,451.626781 105.745473,448.435929 109.031339,442.054131 C112.317205,435.672333 113.960114,426.232731 113.960114,413.735043 C113.960114,401.427289 112.317205,392.082653 109.031339,385.700855 C105.745473,379.319056 100.512856,376.128205 93.3333333,376.128205 C86.1538103,376.128205 80.9496838,379.319056 77.7207977,385.700855 C74.4919117,392.082653 72.8774929,401.427289 72.8774929,413.735043 L72.8774929,413.735043 Z M165.641026,455.615385 L160.05698,455.615385 L160.05698,394.931624 C160.05698,389.423524 160.284898,383.706582 160.740741,377.780627 C160.170937,378.35043 159.582149,378.901232 158.974359,379.433048 C158.366569,379.964865 152.497681,384.580203 141.367521,393.279202 L138.119658,389.233618 L160.740741,372.310541 L165.641026,372.310541 L165.641026,455.615385 Z M223.988604,405.529915 C232.877537,405.529915 239.876518,407.676142 244.985755,411.968661 C250.094992,416.26118 252.649573,422.168054 252.649573,429.689459 C252.649573,438.23651 249.99053,444.884117 244.672365,449.632479 C239.354199,454.38084 232.022839,456.754986 222.678063,456.754986 C218.537491,456.754986 214.605907,456.346633 210.883191,455.529915 C207.160475,454.713196 204.045597,453.545117 201.538462,452.025641 L201.538462,446.156695 C205.641046,448.245974 209.287733,449.698951 212.478632,450.51567 C215.669532,451.332388 219.069308,451.740741 222.678063,451.740741 C229.971546,451.740741 235.82144,449.812935 240.22792,445.957265 C244.6344,442.101595 246.837607,436.887972 246.837607,430.316239 C246.837607,424.124375 244.691379,419.262126 240.39886,415.729345 C236.106341,412.196564 230.27544,410.430199 222.905983,410.430199 C217.967687,410.430199 212.801546,411.170933 207.407407,412.652422 L203.988604,410.430199 L207.293447,372.310541 L247.407407,372.310541 L247.407407,377.780627 L212.649573,377.780627 L210.08547,407.182336 C216.011426,406.080716 220.645757,405.529915 223.988604,405.529915 L223.988604,405.529915 Z" id="2015" sketch:type="MSShapeGroup"></path>
    </g>
  </g>
</svg>
