<svg class="svg-logo" viewBox="0 0 65 90" version="1.1" xmlns="http://www.w3.org/2000/svg" xmlns:xlink="http://www.w3.org/1999/xlink">
  <g stroke="none" stroke-width="1" fill="none" fill-rule="evenodd">
    <path class="swirl" fill="#56A3A6" d="M51.4324841,4.6392767 L50.0196729,6.72459294 C60.006161,12.6082354 64.633849,24.1075804 61.270733,34.6866968 C59.6804379,39.6952691 56.0944588,43.8247573 51.1743259,46.317503 C46.2521762,48.8082416 40.5858047,49.3621851 35.2199456,47.8769743 C26.4929873,45.4635067 21.5002474,36.8793897 24.0868719,28.7368219 C26.1128089,22.3554331 33.3291382,18.7016138 40.1683145,20.5952576 C42.7519136,21.3107679 44.8837359,22.9194118 46.167468,25.1291646 C47.4512002,27.3389174 47.7375945,29.8818391 46.9711872,32.2902891 C45.7479609,36.141802 41.3975914,38.3455336 37.2710934,37.2045305 C34.1096635,36.3304639 32.2995306,33.2195494 33.237371,30.2702017 C33.5812459,29.1894098 34.3537037,28.2992868 35.4155811,27.7634067 C36.4764501,27.2235125 37.6996764,27.1040935 38.8543294,27.4262237 C39.7135123,27.6630546 40.4204221,28.1979312 40.8479967,28.9325085 C41.2745628,29.6660822 41.3693553,30.5110467 41.1132139,31.3118563 C40.7350525,32.5030355 39.3877892,33.1864332 38.1121245,32.8331938 L37.3608437,35.1974889 C40.0341932,35.9380872 42.8567904,34.5090736 43.6484084,32.0123138 C44.1032106,30.5792861 43.9337943,29.0679838 43.1714208,27.7563821 C42.4080388,26.4417698 41.14145,25.4854145 39.6046018,25.0599217 C37.771275,24.5531436 35.8350882,24.7418056 34.1550429,25.5927912 C32.4709638,26.4457839 31.2457206,27.8567341 30.7021766,29.5677371 C29.3508796,33.8216618 31.9606979,38.3073999 36.5218295,39.569829 C42.0429869,41.0971877 47.867682,38.1468365 49.5063817,32.9937572 C50.4734667,29.9520856 50.1124485,26.7418225 48.4919006,23.9520347 C47.417922,22.108567 45.8760316,20.5972646 44.0124519,19.5234973 C42.8920855,11.4521795 38.0274163,4.33721694 30.6688983,0 L29.2570955,2.08531624 C34.9275007,5.42704054 38.9652568,10.5831305 40.6876562,16.5460511 C38.6828962,14.2309286 36.2717387,12.2188694 33.5923386,10.6403311 L32.1835611,12.7256474 C34.4726985,14.0763864 36.5419981,15.7813682 38.300701,17.7322127 C34.6421149,17.3308044 31.0410092,18.1687443 28.0651306,19.9499937 C26.5302992,16.8962799 23.6532467,14.5580764 20.1570179,13.5916858 C11.9201569,11.3126901 3.23051047,15.7131288 0.788091591,23.4000982 C-0.769933668,28.3043044 0.00454102382,33.6089154 2.91285484,37.9521535 L2.97033538,37.9200408 C2.38342878,46.0716404 7.88845136,53.8268492 16.6295277,56.2443308 C24.7605035,58.4942245 33.4733438,56.5223061 39.593509,51.1012867 C44.0164856,51.3892971 48.4424875,50.5051953 52.4348641,48.4841044 C57.9751818,45.6792637 62.0129379,41.0269413 63.804919,35.3871543 C67.5018256,23.7543411 62.4122764,11.1109824 51.4324841,4.6392767 Z M24.0788044,43.1493878 C22.5853187,43.6090003 20.9819141,43.6360954 19.4319563,43.2055849 C16.2715348,42.3325218 14.4634188,39.2216073 15.3982339,36.2712561 C15.7431172,35.1924713 16.515575,34.3013448 17.576444,33.7644612 C18.5596638,33.2667148 19.6820471,33.132243 20.7640931,33.369074 C20.7913207,35.2366262 21.1422546,37.0630341 21.7664731,38.7941075 C21.2975529,38.9506567 20.7751858,38.9737377 20.2729874,38.8352518 L19.5206982,41.2005504 C20.6198875,41.5026101 21.7624394,41.4474165 22.784988,41.0791243 C23.1661748,41.7926276 23.5977831,42.4860605 24.0788044,43.1493878 Z M3.32328609,24.0995522 C5.35124,17.7171599 12.5665609,14.0643441 19.4067455,15.9559809 C22.3664893,16.7748539 24.7675625,18.8350821 25.9080975,21.5034439 C24.94908,22.3313486 24.0959478,23.2756617 23.3769368,24.3223339 C23.2771021,24.2922282 23.1802928,24.2581085 23.0814666,24.2330205 C23.016927,24.2129501 22.9503706,24.1989008 22.8828058,24.1818409 C22.3059835,22.3945704 20.7893039,20.9595356 18.8430328,20.4236555 C17.009706,19.9148705 15.0735193,20.1055394 13.3914571,20.9555215 C11.7093949,21.8065072 10.4841517,23.2174574 9.94060761,24.9304675 C9.79741046,25.3870694 9.6965674,25.8547101 9.63908686,26.3243579 C6.90523154,28.1306953 4.7744177,30.7609234 3.73674263,33.97219 C2.45200206,30.8361874 2.28460258,27.367016 3.32328609,24.0995522 Z M19.5902799,23.6610136 C17.2829907,23.532563 15.0200725,23.8858023 12.9406886,24.6544992 C13.3501114,24.0172635 13.9329843,23.4884081 14.6519953,23.1251335 C15.7138727,22.5862429 16.9350822,22.4668239 18.0927605,22.7889541 C18.6756334,22.9485139 19.1879161,23.2586018 19.5902799,23.6610136 Z M17.3798001,53.8800358 C8.65485861,51.4655647 3.66211877,42.8794407 6.24773479,34.7388799 C8.25451166,28.4217164 15.3457956,24.7819464 22.1224491,26.546136 C21.9056365,27.027826 21.7150432,27.5235652 21.5516774,28.0353609 C21.2501566,28.983688 21.0414115,29.9350257 20.9153577,30.8833529 C19.3411975,30.6364868 17.7388013,30.8773318 16.3159058,31.5968562 C14.634852,32.4478419 13.4096088,33.8607992 12.8640479,35.5718021 C11.5127509,39.8247233 14.1225693,44.3114649 18.6796671,45.5728905 C21.0293104,46.2221685 23.5564374,46.0676263 25.7880943,45.1714822 C28.05908,47.4936293 31.0097479,49.2859175 34.4666479,50.2422728 C35.0122089,50.3938045 35.5638204,50.5202481 36.1184572,50.6346495 C30.8322641,54.4309687 23.8972869,55.6823592 17.3798001,53.8800358 Z"></path>
    <path class="islensku" fill="#56A3A6" d="M0.143904801,78.6952484 L0.143904801,65.5093196 L1.06129791,65.5093196 L1.06129791,78.6952484 L0.143904801,78.6952484 Z M0,64.3097789 C0.437712626,63.8347704 0.870921707,63.3191835 1.29964024,62.7630027 C1.72835877,62.2068219 2.02066247,61.7844314 2.17656012,61.4958187 L3.44472118,61.4958187 L3.44472118,61.6491434 C3.2288629,61.9618072 2.86160953,62.3766818 2.34295005,62.8937797 C1.82429057,63.4108775 1.2531741,63.9309739 0.629583506,64.4540845 L0,64.4540845 L0,64.3097789 Z M10.6219732,76.1428422 C10.6219732,77.020706 10.2891966,77.6956288 9.6236336,78.1676308 C8.95807056,78.6396329 8.01370475,78.8756304 6.79050782,78.8756304 C5.483366,78.8756304 4.4460626,78.6742058 3.67856649,78.2713505 L3.67856649,77.3063065 C4.66192088,77.7993533 5.69922428,78.045873 6.79050782,78.045873 C7.75587402,78.045873 8.48888177,77.8850339 8.98955306,77.5633509 C9.49022436,77.241668 9.74055625,76.8132649 9.74055625,76.2781287 C9.74055625,75.785082 9.54119013,75.3702074 9.14245192,75.0334925 C8.7437137,74.6967776 8.0886536,74.3660805 7.17725197,74.0413912 C6.19989364,73.686638 5.51335468,73.3814947 5.1176145,73.1259522 C4.72187432,72.8704097 4.42357464,72.5818012 4.22270652,72.2601183 C4.02183839,71.9384353 3.92140584,71.5461083 3.92140584,71.0831253 C3.92140584,70.3495679 4.22869948,69.7693448 4.84329597,69.3424384 C5.45789247,68.9155321 6.31681566,68.7020821 7.42009132,68.7020821 C8.47539848,68.7020821 9.47672604,68.9005004 10.4241041,69.2973429 L10.0913242,70.1090622 C9.13195406,69.7122197 8.24155201,69.5138014 7.42009132,69.5138014 C6.6226149,69.5138014 5.9900397,69.6460802 5.52234676,69.9106419 C5.05465381,70.1752036 4.82081085,70.5419768 4.82081085,71.0109725 C4.82081085,71.5220576 5.00218904,71.9309195 5.36495088,72.2375705 C5.72771271,72.5442216 6.43673657,72.8869441 7.49204372,73.2657483 C8.37346504,73.5844249 9.0150342,73.8715301 9.41677044,74.1270726 C9.81850669,74.3826152 10.1198044,74.6727268 10.3206725,74.9974161 C10.5215406,75.3221054 10.6219732,75.7039103 10.6219732,76.1428422 L10.6219732,76.1428422 Z M14.0307181,78.6952484 L13.1403072,78.6952484 L13.1403072,64.6615239 L14.0307181,64.6615239 L14.0307181,78.6952484 Z M21.2529404,78.8756304 C19.8318733,78.8756304 18.7241173,78.4367051 17.9296389,77.5588414 C17.1351605,76.6809776 16.7379272,75.4513855 16.7379272,73.8700282 C16.7379272,72.3067092 17.1216695,71.0545695 17.8891656,70.1135717 C18.6566617,69.1725739 19.6909672,68.7020821 20.9921129,68.7020821 C22.1433571,68.7020821 23.0517471,69.1049313 23.7173101,69.9106419 C24.3828731,70.7163525 24.7156496,71.8106594 24.7156496,73.1935955 L24.7156496,73.9151237 L17.6733084,73.9151237 C17.6853006,75.2619832 17.9985902,76.2901507 18.6131867,76.999657 C19.2277832,77.7091633 20.1076923,78.0639112 21.2529404,78.0639112 C21.8105743,78.0639112 22.3007451,78.0248288 22.7234676,77.9466628 C23.14619,77.8684969 23.6813306,77.700142 24.3289055,77.441593 L24.3289055,78.2533123 C23.7772677,78.4938229 23.2676099,78.6576683 22.799917,78.7448534 C22.332224,78.8320385 21.8165703,78.8756304 21.2529404,78.8756304 L21.2529404,78.8756304 Z M20.9921129,69.4957632 C20.050731,69.4957632 19.2952383,69.8069191 18.7256123,70.4292403 C18.1559863,71.0515616 17.8232097,71.9489534 17.7272727,73.1214426 L23.7712744,73.1214426 C23.7712744,71.98503 23.5254395,71.0966572 23.0337623,70.4562977 C22.5420851,69.8159381 21.8615421,69.4957632 20.9921129,69.4957632 L20.9921129,69.4957632 Z M34.2313546,78.6952484 L34.2313546,72.3367807 C34.2313546,71.3506871 34.0244936,70.6336756 33.6107652,70.1857246 C33.1970368,69.7377735 32.5554677,69.5138014 31.6860385,69.5138014 C30.5168061,69.5138014 29.6608809,69.8099256 29.1182372,70.402183 C28.5755934,70.9944404 28.3042756,71.9549653 28.3042756,73.2837865 L28.3042756,78.6952484 L27.4138647,78.6952484 L27.4138647,68.8914833 L28.1693649,68.8914833 L28.3402518,70.2353296 L28.3942161,70.2353296 C29.0297989,69.2131595 30.1600398,68.7020821 31.784973,68.7020821 C34.0035165,68.7020821 35.1127716,69.8955981 35.1127716,72.282666 L35.1127716,78.6952484 L34.2313546,78.6952484 Z M44.3406669,76.1428422 C44.3406669,77.020706 44.0078904,77.6956288 43.3423274,78.1676308 C42.6767643,78.6396329 41.7323985,78.8756304 40.5092016,78.8756304 C39.2020598,78.8756304 38.1647564,78.6742058 37.3972603,78.2713505 L37.3972603,77.3063065 C38.3806147,77.7993533 39.4179181,78.045873 40.5092016,78.045873 C41.4745678,78.045873 42.2075756,77.8850339 42.7082469,77.5633509 C43.2089181,77.241668 43.45925,76.8132649 43.45925,76.2781287 C43.45925,75.785082 43.2598839,75.3702074 42.8611457,75.0334925 C42.4624075,74.6967776 41.8073474,74.3660805 40.8959458,74.0413912 C39.9185874,73.686638 39.2320485,73.3814947 38.8363083,73.1259522 C38.4405681,72.8704097 38.1422684,72.5818012 37.9414003,72.2601183 C37.7405322,71.9384353 37.6400996,71.5461083 37.6400996,71.0831253 C37.6400996,70.3495679 37.9473933,69.7693448 38.5619898,69.3424384 C39.1765863,68.9155321 40.0355095,68.7020821 41.1387851,68.7020821 C42.1940923,68.7020821 43.1954198,68.9005004 44.1427978,69.2973429 L43.810018,70.1090622 C42.8506478,69.7122197 41.9602458,69.5138014 41.1387851,69.5138014 C40.3413087,69.5138014 39.7087335,69.6460802 39.2410405,69.9106419 C38.7733476,70.1752036 38.5395046,70.5419768 38.5395046,71.0109725 C38.5395046,71.5220576 38.7208828,71.9309195 39.0836447,72.2375705 C39.4464065,72.5442216 40.1554304,72.8869441 41.2107375,73.2657483 C42.0921588,73.5844249 42.733728,73.8715301 43.1354642,74.1270726 C43.5372005,74.3826152 43.8384981,74.6727268 44.0393663,74.9974161 C44.2402344,75.3221054 44.3406669,75.7039103 44.3406669,76.1428422 L44.3406669,76.1428422 Z M47.7314238,74.3931362 L52.7231216,68.8914833 L53.8024076,68.8914833 L49.9529542,73.0763471 L54.1351875,78.6952484 L53.0648955,78.6952484 L49.3503528,73.7437608 L47.7494119,75.2048555 L47.7494119,78.6952484 L46.859001,78.6952484 L46.859001,64.6615239 L47.7494119,64.6615239 L47.7494119,71.6964243 L47.6864536,74.3931362 L47.7314238,74.3931362 Z M56.5455929,68.8914833 L56.5455929,75.2409319 C56.5455929,76.2270254 56.752454,76.9440369 57.1661824,77.391988 C57.5799107,77.839939 58.2214799,78.0639112 59.0909091,78.0639112 C60.2541454,78.0639112 61.1100706,77.7692901 61.6587104,77.1800391 C62.2073502,76.590788 62.481666,75.6317663 62.481666,74.3029451 L62.481666,68.8914833 L63.3630829,68.8914833 L63.3630829,78.6952484 L62.6075827,78.6952484 L62.4456898,77.3423829 L62.3917255,77.3423829 C61.7561428,78.364553 60.6259018,78.8756304 59.0009686,78.8756304 C56.7764291,78.8756304 55.664176,77.6821144 55.664176,75.2950465 L55.664176,68.8914833 L56.5455929,68.8914833 Z"></path>
    <path class="vefverdlaunin" fill="#56A3A6" d="M1.99985349,89.7201038 L0,84.4391536 L1.18086587,84.4391536 L2.25221595,87.5093624 C2.43633037,88.0250455 2.54743223,88.4420422 2.58552487,88.7603651 L2.62361732,88.7603651 C2.6521868,88.5311726 2.76328866,88.1141759 2.95692623,87.5093624 L4.02827632,84.4391536 L5.2186653,84.4391536 L3.2092887,89.7201038 L1.99985349,89.7201038 Z M8.31843821,89.8156002 C7.49944649,89.8156002 6.85902363,89.5760658 6.39715039,89.0969898 C5.93527716,88.6179139 5.704344,87.9581996 5.704344,87.1178272 C5.704344,86.2551722 5.91861188,85.5771547 6.34715405,85.0837542 C6.77569623,84.5903537 7.36453609,84.3436572 8.1136913,84.3436572 C8.80888195,84.3436572 9.35804257,84.5553388 9.76118966,84.9787082 C10.1643367,85.4020776 10.3659073,85.9845997 10.3659073,86.7262921 L10.3659073,87.3326941 L6.85664054,87.3326941 C6.87251247,87.8451939 7.01059621,88.2391126 7.27089591,88.5144619 C7.5311956,88.7898112 7.89783174,88.9274838 8.37081532,88.9274838 C8.6819052,88.9274838 8.97156362,88.8980393 9.23979928,88.8391496 C9.50803494,88.7802599 9.79610619,88.6823771 10.1040217,88.5454982 L10.1040217,89.4574887 C9.83102445,89.5880011 9.55485696,89.6803133 9.27551095,89.7344282 C8.99616494,89.7885431 8.67714388,89.8156002 8.31843821,89.8156002 L8.31843821,89.8156002 Z M8.1136913,85.1935751 C7.75816002,85.1935751 7.4732631,85.306578 7.25899202,85.5325872 C7.04472093,85.7585965 6.91695379,86.0880557 6.87568676,86.5209748 L9.26598784,86.5209748 C9.25963907,86.0848725 9.15488588,85.7546174 8.95172515,85.5301998 C8.74856441,85.3057822 8.46922259,85.1935751 8.1136913,85.1935751 L8.1136913,85.1935751 Z M14.2799062,85.2890714 L12.9942861,85.2890714 L12.9942861,89.7201038 L11.8705589,89.7201038 L11.8705589,85.2890714 L11.0039558,85.2890714 L11.0039558,84.7638413 L11.8705589,84.4200543 L11.8705589,84.0762673 C11.8705589,83.4523545 12.0165785,82.9899974 12.3086221,82.6891823 C12.6006656,82.3883672 13.0466602,82.2379619 13.6466193,82.2379619 C14.0402432,82.2379619 14.4275126,82.3032171 14.8084389,82.4337295 L14.5132225,83.2836473 C14.2370508,83.1945169 13.9735807,83.1499524 13.7228042,83.1499524 C13.4688533,83.1499524 13.283948,83.2287361 13.1680829,83.3863059 C13.0522178,83.5438758 12.9942861,83.780227 12.9942861,84.0953666 L12.9942861,84.4391536 L14.2799062,84.4391536 L14.2799062,85.2890714 Z M16.3749908,89.7201038 L14.3751374,84.4391536 L15.5560032,84.4391536 L16.6273533,87.5093624 C16.8114677,88.0250455 16.9225696,88.4420422 16.9606622,88.7603651 L16.9987547,88.7603651 C17.0273241,88.5311726 17.138426,88.1141759 17.3320636,87.5093624 L18.4034137,84.4391536 L19.5938027,84.4391536 L17.584426,89.7201038 L16.3749908,89.7201038 Z M22.6935756,89.8156002 C21.8745838,89.8156002 21.234161,89.5760658 20.7722877,89.0969898 C20.3104145,88.6179139 20.0794814,87.9581996 20.0794814,87.1178272 C20.0794814,86.2551722 20.2937492,85.5771547 20.7222914,85.0837542 C21.1508336,84.5903537 21.7396734,84.3436572 22.4888287,84.3436572 C23.1840193,84.3436572 23.7331799,84.5553388 24.136327,84.9787082 C24.5394741,85.4020776 24.7410446,85.9845997 24.7410446,86.7262921 L24.7410446,87.3326941 L21.2317779,87.3326941 C21.2476498,87.8451939 21.3857336,88.2391126 21.6460333,88.5144619 C21.9063329,88.7898112 22.2729691,88.9274838 22.7459527,88.9274838 C23.0570426,88.9274838 23.346701,88.8980393 23.6149366,88.8391496 C23.8831723,88.7802599 24.1712435,88.6823771 24.479159,88.5454982 L24.479159,89.4574887 C24.2061618,89.5880011 23.9299943,89.6803133 23.6506483,89.7344282 C23.3713023,89.7885431 23.0522812,89.8156002 22.6935756,89.8156002 L22.6935756,89.8156002 Z M22.4888287,85.1935751 C22.1332974,85.1935751 21.8484005,85.306578 21.6341294,85.5325872 C21.4198583,85.7585965 21.2920911,86.0880557 21.2508241,86.5209748 L23.6411252,86.5209748 C23.6347764,86.0848725 23.5300232,85.7546174 23.3268625,85.5301998 C23.1237018,85.3057822 22.8443599,85.1935751 22.4888287,85.1935751 L22.4888287,85.1935751 Z M28.6836129,84.3436572 C28.9089944,84.3436572 29.0946932,84.3595731 29.240715,84.3914054 L29.1311992,85.4370908 C28.9724799,85.3988921 28.8074142,85.379793 28.6359974,85.379793 C28.1884089,85.379793 27.8257407,85.5262193 27.5479818,85.8190764 C27.270223,86.1119334 27.1313457,86.4923236 27.1313457,86.9602582 L27.1313457,89.7201038 L26.01238,89.7201038 L26.01238,84.4391536 L26.8885063,84.4391536 L27.0361146,85.3702434 L27.0932532,85.3702434 C27.2678445,85.0551037 27.4956033,84.805224 27.7765365,84.6205967 C28.0574697,84.4359695 28.3598255,84.3436572 28.6836129,84.3436572 L28.6836129,84.3436572 Z M34.8879203,87.0127812 C34.8879203,87.900902 34.6696845,88.5900607 34.2332064,89.080278 C33.7967282,89.5704952 33.1801129,89.8156002 32.3833419,89.8156002 C31.6373611,89.8156002 31.037411,89.5991438 30.5834737,89.1662247 C30.1295365,88.7333056 29.9025712,88.1523751 29.9025712,87.4234157 C29.9025712,86.6880898 30.1104904,86.1063635 30.5263351,85.6782192 C30.9421797,85.2500749 31.4992762,85.036006 32.1976412,85.036006 C32.8769599,85.036006 33.3546979,85.2126726 33.6308695,85.566011 L33.668962,85.5469117 C33.47215,84.9452814 33.1118626,84.3961827 32.5880888,83.899599 L31.3976998,84.6158219 L30.9786829,83.9807709 L31.9500403,83.4125674 C31.6770431,83.2247569 31.4119858,83.0624147 31.1548604,82.9255359 L31.5548311,82.2284123 C31.9992453,82.4289557 32.408735,82.6581447 32.7833126,82.9159862 L33.883232,82.2570612 L34.3022489,82.8730129 L33.4070764,83.4125674 C33.8895832,83.8582195 34.2570129,84.3834444 34.5093766,84.9882578 C34.7617403,85.5930713 34.8879203,86.2679057 34.8879203,87.0127812 L34.8879203,87.0127812 Z M33.7451469,87.2276481 C33.7451469,86.823378 33.6253156,86.5018767 33.3856494,86.2631346 C33.1459832,86.0243924 32.8182327,85.9050231 32.4023881,85.9050231 C31.9230557,85.9050231 31.5770528,86.0355336 31.3643689,86.2965583 C31.151685,86.5575831 31.0453447,86.9395648 31.0453447,87.442515 C31.0453447,87.929549 31.1627952,88.3019811 31.3976998,88.5598227 C31.6326044,88.8176642 31.9674972,88.946583 32.4023881,88.946583 C32.8721973,88.946583 33.2134387,88.8017483 33.4261226,88.5120745 C33.6388065,88.2224007 33.7451469,87.7942628 33.7451469,87.2276481 L33.7451469,87.2276481 Z M37.2544136,89.7201038 L36.135448,89.7201038 L36.135448,82.2904849 L37.2544136,82.2904849 L37.2544136,89.7201038 Z M42.1492931,89.7201038 L41.9255,88.9847816 L41.8874075,88.9847816 C41.6334566,89.3062877 41.3779223,89.5251314 41.120797,89.6413192 C40.8636717,89.7575071 40.5335405,89.8156002 40.1303934,89.8156002 C39.6129684,89.8156002 39.2090338,89.6755402 38.9185774,89.3954161 C38.628121,89.1152919 38.482895,88.7189859 38.482895,88.206486 C38.482895,87.6621539 38.6844655,87.2515236 39.0876126,86.9745827 C39.4907597,86.6976418 40.1049943,86.5464407 40.9303348,86.5209748 L41.839792,86.4923259 L41.839792,86.2106116 C41.839792,85.8731893 41.7612271,85.6209222 41.6040949,85.4538027 C41.4469628,85.2866832 41.2033323,85.2031247 40.8731961,85.2031247 C40.6033733,85.2031247 40.3446646,85.2429145 40.0970625,85.3224952 C39.8494603,85.4020759 39.6113849,85.4959797 39.3828291,85.6042095 L39.0209508,84.8020399 C39.3066456,84.6524281 39.619318,84.5386294 39.9589774,84.4606403 C40.2986367,84.3826512 40.6192449,84.3436572 40.9208117,84.3436572 C41.5906072,84.3436572 42.0961207,84.4900835 42.4373672,84.7829406 C42.7786138,85.0757976 42.9492345,85.5357673 42.9492345,86.1628634 L42.9492345,89.7201038 L42.1492931,89.7201038 Z M40.4827485,88.9561327 C40.88907,88.9561327 41.2152333,88.842334 41.4612483,88.6147331 C41.7072632,88.3871322 41.8302688,88.0680183 41.8302688,87.6573818 L41.8302688,87.1989992 L41.1541279,87.2276481 C40.6271797,87.2467475 40.2438783,87.3350807 40.0042121,87.4926506 C39.764546,87.6502204 39.6447147,87.8913463 39.6447147,88.2160357 C39.6447147,88.4515946 39.7145501,88.6338317 39.8542231,88.7627525 C39.9938961,88.8916733 40.2034025,88.9561327 40.4827485,88.9561327 L40.4827485,88.9561327 Z M48.2250385,89.7201038 L48.0679071,89.027755 L48.0107684,89.027755 C47.8552235,89.2728636 47.6338134,89.465446 47.3465314,89.6055081 C47.0592494,89.7455702 46.7314989,89.8156002 46.3632701,89.8156002 C45.7252184,89.8156002 45.2490676,89.6564411 44.9348033,89.3381182 C44.620539,89.0197953 44.4634093,88.5375434 44.4634093,87.891348 L44.4634093,84.4391536 L45.591898,84.4391536 L45.591898,87.6955804 C45.591898,88.0998504 45.6744308,88.4030484 45.8394989,88.6051835 C46.004567,88.8073185 46.2632757,88.9083845 46.6156326,88.9083845 C47.0854418,88.9083845 47.4306511,88.7675287 47.651271,88.485813 C47.8718908,88.2040972 47.9821991,87.7321906 47.9821991,87.070079 L47.9821991,84.4391536 L49.1059263,84.4391536 L49.1059263,89.7201038 L48.2250385,89.7201038 Z M55.3340415,89.7201038 L54.2103143,89.7201038 L54.2103143,86.4732266 C54.2103143,86.0657733 54.128575,85.7617796 53.9650941,85.5612361 C53.8016132,85.3606927 53.542111,85.2604225 53.1865797,85.2604225 C52.7135962,85.2604225 52.3675932,85.4004825 52.1485605,85.6806066 C51.9295279,85.9607308 51.8200132,86.43025 51.8200132,87.0891783 L51.8200132,89.7201038 L50.7010475,89.7201038 L50.7010475,84.4391536 L51.5771738,84.4391536 L51.7343052,85.1315024 L51.7914439,85.1315024 C51.9501632,84.8800273 52.1755412,84.6858533 52.4675848,84.5489744 C52.7596283,84.4120956 53.0834109,84.3436572 53.4389422,84.3436572 C54.702348,84.3436572 55.3340415,84.9882514 55.3340415,86.277459 L55.3340415,89.7201038 Z M58.0100359,89.7201038 L56.8910703,89.7201038 L56.8910703,84.4391536 L58.0100359,84.4391536 L58.0100359,89.7201038 Z M56.8244085,83.0401315 C56.8244085,82.8395881 56.8791658,82.6852038 56.9886821,82.5769741 C57.0981985,82.4687443 57.2545347,82.4146302 57.4576954,82.4146302 C57.6545074,82.4146302 57.8076692,82.4687443 57.9171856,82.5769741 C58.0267019,82.6852038 58.0814592,82.8395881 58.0814592,83.0401315 C58.0814592,83.2311253 58.0267019,83.3815306 57.9171856,83.491352 C57.8076692,83.6011734 57.6545074,83.6560832 57.4576954,83.6560832 C57.2545347,83.6560832 57.0981985,83.6011734 56.9886821,83.491352 C56.8791658,83.3815306 56.8244085,83.2311253 56.8244085,83.0401315 L56.8244085,83.0401315 Z M64.2429126,89.7201038 L63.1191854,89.7201038 L63.1191854,86.4732266 C63.1191854,86.0657733 63.0374462,85.7617796 62.8739653,85.5612361 C62.7104844,85.3606927 62.4509822,85.2604225 62.0954509,85.2604225 C61.6224673,85.2604225 61.2764644,85.4004825 61.0574317,85.6806066 C60.838399,85.9607308 60.7288843,86.43025 60.7288843,87.0891783 L60.7288843,89.7201038 L59.6099187,89.7201038 L59.6099187,84.4391536 L60.486045,84.4391536 L60.6431763,85.1315024 L60.700315,85.1315024 C60.8590343,84.8800273 61.0844124,84.6858533 61.3764559,84.5489744 C61.6684995,84.4120956 61.9922821,84.3436572 62.3478133,84.3436572 C63.6112192,84.3436572 64.2429126,84.9882514 64.2429126,86.277459 L64.2429126,89.7201038 Z"></path>
  </g>
</svg>
