<svg class="svg-logo-2015-landscape" viewBox="0 0 379 150" version="1.1" xmlns="http://www.w3.org/2000/svg" xmlns:xlink="http://www.w3.org/1999/xlink" xmlns:sketch="http://www.bohemiancoding.com/sketch/ns">
    <g id="Verðlaun" stroke="none" stroke-width="1" fill="none" fill-rule="evenodd" sketch:type="MSPage">
        <g id="share-copy" sketch:type="MSArtboardGroup" transform="translate(-125.000000, -116.000000)">
            <g id="logo-2015-landscape" sketch:type="MSLayerGroup" transform="translate(125.000000, 116.000000)">
                <g id="verdlaun-2015-copy" fill="#56A3A6" sketch:type="MSShapeGroup">
                    <path d="M134.515728,12.0997888 L130.820683,17.538543 C156.93919,32.8837867 169.042374,62.8754544 160.246532,90.4670557 C156.087299,103.530012 146.708584,114.300211 133.840545,120.80159 C120.96723,127.297734 106.147489,128.742485 92.1137038,124.868878 C69.2893513,118.574266 56.2314164,96.1858614 62.9964342,74.9490701 C68.2950388,58.3056445 87.1685154,48.7760466 105.055592,53.7148961 C111.812697,55.5810327 117.388232,59.7765684 120.745686,65.5398682 C124.103139,71.3031679 124.85217,77.9354121 122.84772,84.2169377 C119.648513,94.2621441 108.270624,100.00974 97.4782443,97.0338673 C89.2098892,94.754197 84.4756954,86.6405597 86.9285089,78.9483081 C87.8278738,76.1294735 89.8481482,73.8079263 92.625366,72.4102868 C95.3999464,71.0021782 98.5991537,70.6907192 101.619015,71.5308732 C103.866109,72.1485566 105.71495,73.5435787 106.833222,75.4594441 C107.948857,77.3726921 108.196775,79.5764607 107.526867,81.6650679 C106.53783,84.7718058 103.014218,86.5541887 99.6778641,85.6328983 L97.7129759,91.7992626 C104.704813,93.7308318 112.08699,90.0037932 114.157376,83.491945 C115.346859,79.7544372 114.90377,75.8127799 112.90987,72.3919657 C110.913332,68.9632996 107.600715,66.4690105 103.581266,65.3592743 C98.7864115,64.0375366 93.7225385,64.5295894 89.3285737,66.7490618 C84.9240592,68.9737688 81.7195771,72.6536959 80.2980002,77.1161965 C76.7638389,88.2109411 83.5895176,99.9102826 95.5186309,103.202849 C109.958581,107.186383 125.192399,99.4915142 129.478229,86.0516667 C132.007528,78.1186233 131.063327,69.745873 126.824971,62.4697725 C124.016104,57.6617881 119.983467,53.7201307 115.10949,50.9196172 C112.179301,29.8686544 99.4563197,11.3119808 80.2109649,0 L76.5185575,5.43875428 C91.348848,14.1543711 101.909133,27.6020706 106.41387,43.1540812 C101.170652,37.1159646 94.8645473,31.8682734 87.8568856,27.7512568 L84.1723905,33.1900111 C90.1593654,36.7129001 95.5713796,41.1596968 100.171064,46.2477325 C90.6024542,45.2008116 81.184178,47.3862591 73.4011107,52.0319707 C69.3869364,44.0675197 61.8623376,37.9692052 52.7183545,35.448743 C31.1757948,29.5048494 8.44902739,40.9817202 2.06116262,61.0302562 C-2.01367267,73.8210128 0.0118765238,87.656073 7.61823573,98.9837576 L7.76856946,98.9000039 C6.23358296,120.160351 20.6313343,140.386863 43.4926109,146.691945 C64.75824,152.559937 87.5456684,147.416938 103.552254,133.27827 C115.120039,134.029436 126.695736,131.723593 137.137337,126.452346 C151.627399,119.136986 162.187684,107.003172 166.874404,92.2939328 C176.543236,61.9541639 163.232107,28.9787716 134.515728,12.0997888 Z M62.9753347,112.538766 C59.0692952,113.737491 54.8757754,113.808158 50.8220396,112.685335 C42.5563219,110.408282 37.827403,102.294645 40.2723042,94.5997762 C41.1743065,91.7861761 43.1945809,89.4620116 45.9691613,88.0617549 C48.5406593,86.7635729 51.4761231,86.4128544 54.3060897,87.0305378 C54.3773004,91.9013374 55.2951274,96.6648277 56.9276989,101.179674 C55.7012922,101.587973 54.3351014,101.648171 53.0216594,101.286984 L51.0541337,107.455965 C53.9289366,108.243773 56.9171492,108.099822 59.5915071,107.139272 C60.5884571,109.000174 61.7172788,110.80873 62.9753347,112.538766 Z M8.69167131,62.8545159 C13.9955508,46.208473 32.8663899,36.6814924 50.7561037,41.6151074 C58.496972,43.7508261 64.776702,49.1241478 67.7596397,56.0835548 C65.2514401,58.2428292 63.0201711,60.7057107 61.1396808,63.4355571 C60.8785748,63.357038 60.6253812,63.2680497 60.3669126,63.2026172 C60.1981169,63.1502711 60.0240462,63.1136289 59.8473382,63.0691347 C58.338726,58.4077193 54.3720255,54.6649769 49.2817782,53.2673374 C44.4869235,51.9403651 39.4230505,52.4376526 35.0238108,54.6545077 C30.6245712,56.8739801 27.420089,60.5539072 25.9985122,65.0216423 C25.6239966,66.2125149 25.3602532,67.4321778 25.2099195,68.6570753 C18.0598363,73.3682195 12.4869386,80.2281689 9.77301919,88.6035365 C6.41292847,80.4244666 5.97511445,71.3764524 8.69167131,62.8545159 Z M51.2361167,61.7107548 C45.201668,61.3757401 39.2832665,62.2970305 33.8448779,64.3018841 C34.915676,62.6398972 36.4401128,61.2605788 38.3206031,60.3131154 C41.097821,58.907624 44.2917534,58.596165 47.3195274,59.4363191 C48.8439642,59.8524701 50.1837806,60.6612166 51.2361167,61.7107548 Z M45.4548617,140.52558 C22.635784,134.228351 9.57784908,111.834712 16.3402295,90.6031555 C21.5887228,74.1272372 40.1351576,64.6342815 57.8587131,69.2354991 C57.2916648,70.4918042 56.7931898,71.7847516 56.3659255,73.1195758 C55.5773328,75.5929265 55.031384,78.0741291 54.7017047,80.5474798 C50.5846705,79.9036235 46.3937881,80.531776 42.672369,82.4083818 C38.2757668,84.6278542 35.0712846,88.3130159 33.6444329,92.7755164 C30.1102716,103.867644 36.9359504,115.569603 48.8545139,118.859552 C54.9997348,120.552946 61.609144,120.149882 67.4457851,117.812631 C73.3852861,123.869068 81.1024175,128.54357 90.1435408,131.037859 C91.5703925,131.433072 93.0130688,131.762852 94.4636574,132.061225 C80.6382292,141.962479 62.5005966,145.226256 45.4548617,140.52558 Z" id="swirl-copy-3"></path>
                </g>
                <g id="Íslensku-+-vefverðlaunin-+-2015" transform="translate(210.000000, 6.000000)" fill="#EBEBEA" sketch:type="MSShapeGroup">
                    <path d="M0.376366404,45.2466243 L0.376366404,10.8561442 L2.77570223,10.8561442 L2.77570223,45.2466243 L0.376366404,45.2466243 Z M0,7.72759843 C1.14478687,6.48871949 2.27779523,5.14400714 3.39905908,3.69342104 C4.52032293,2.24283494 5.28480955,1.14119013 5.69254186,0.388453557 L9.00927079,0.388453557 L9.00927079,0.788342861 C8.44471836,1.60380748 7.48420954,2.68585007 6.12771551,4.03450309 C4.77122148,5.38315612 3.27753225,6.7396298 1.64660302,8.10396483 L0,8.10396483 L0,7.72759843 Z M27.7805452,38.5896435 C27.7805452,40.8792173 26.9102066,42.6394967 25.1695033,43.8705346 C23.4287999,45.1015726 20.9589201,45.7170823 17.7597897,45.7170823 C14.3411111,45.7170823 11.6281637,45.1917428 9.6208662,44.141048 L9.6208662,41.6240977 C12.1927161,42.9100226 14.9056635,43.5529755 17.7597897,43.5529755 C20.2845936,43.5529755 22.2016908,43.133488 23.5111388,42.2945003 C24.8205868,41.4555127 25.475301,40.3381861 25.475301,38.942487 C25.475301,37.6565621 24.9538819,36.5745195 23.9110281,35.6963268 C22.8681743,34.8181341 21.1549402,33.9556364 18.7712744,33.1088078 C16.2151064,32.1835691 14.419543,31.3877189 13.3845302,30.7212334 C12.3495174,30.0547479 11.5693491,29.3020226 11.0440017,28.463035 C10.5186543,27.6240474 10.2559845,26.6008114 10.2559845,25.3932965 C10.2559845,23.4800911 11.0596756,21.9667996 12.6670818,20.8533768 C14.274488,19.7399539 16.5209025,19.1832508 19.4063927,19.1832508 C22.1664268,19.1832508 24.7852835,19.7007495 27.2630414,20.7357623 L26.3926941,22.8528233 C23.8835722,21.8178105 21.5548283,21.3003119 19.4063927,21.3003119 C17.3206851,21.3003119 15.6662577,21.645311 14.4430607,22.3353195 C13.2198638,23.025328 12.6082745,23.9819164 12.6082745,25.2051133 C12.6082745,26.5380843 13.0826483,27.6044451 14.03141,28.4042277 C14.9801717,29.2040103 16.8345418,30.0978716 19.5945759,31.0858384 C21.8998316,31.916985 23.5777817,32.6657898 24.6284765,33.3322753 C25.6791713,33.9987608 26.4671806,34.7554066 26.992528,35.6022352 C27.5178754,36.4490639 27.7805452,37.4448567 27.7805452,38.5896435 L27.7805452,38.5896435 Z M36.6957244,45.2466243 L34.3669572,45.2466243 L34.3669572,8.64499154 L36.6957244,8.64499154 L36.6957244,45.2466243 Z M55.5846133,45.7170823 C51.8679764,45.7170823 48.9707682,44.5723126 46.8929016,42.2827389 C44.815035,39.9931651 43.7761173,36.7862418 43.7761173,32.6618727 C43.7761173,28.5845496 44.779751,25.3188196 46.7870486,22.8645847 C48.7943461,20.4103499 51.4994526,19.1832508 54.9024491,19.1832508 C57.9133954,19.1832508 60.2891846,20.2339299 62.0298879,22.3353195 C63.7705912,24.4367091 64.6409298,27.2907924 64.6409298,30.8976552 L64.6409298,32.7794872 L46.222499,32.7794872 C46.253863,36.2922578 47.0732358,38.9738417 48.680642,40.8243191 C50.2880483,42.6747965 52.589349,43.6000213 55.5846133,43.6000213 C57.0430404,43.6000213 58.3250256,43.4980897 59.4306074,43.2942236 C60.5361893,43.0903574 61.9357879,42.6512677 63.6294451,41.9769412 L63.6294451,44.0940022 C62.1867,44.7212827 60.853749,45.1486111 59.6305521,45.3760003 C58.4073552,45.6033894 57.0587224,45.7170823 55.5846133,45.7170823 L55.5846133,45.7170823 Z M54.9024491,21.2532661 C52.4403733,21.2532661 50.4644694,22.064798 48.9746783,23.6878862 C47.4848872,25.3109745 46.6145486,27.6514796 46.3636364,30.709472 L62.1710253,30.709472 C62.1710253,27.7455717 61.5280725,25.4285892 60.2421475,23.7584549 C58.9562225,22.0883207 57.1763409,21.2532661 54.9024491,21.2532661 L54.9024491,21.2532661 Z M89.5281583,45.2466243 L89.5281583,28.6629796 C89.5281583,26.0911297 88.987137,24.2210778 87.9050782,23.0527679 C86.8230194,21.884458 85.1450693,21.3003119 82.8711775,21.3003119 C79.8131852,21.3003119 77.5746116,22.0726394 76.1553895,23.6173175 C74.7361674,25.1619957 74.026567,27.6671595 74.026567,31.1328842 L74.026567,45.2466243 L71.6977999,45.2466243 L71.6977999,19.6772317 L73.6737235,19.6772317 L74.1206586,23.1821439 L74.261796,23.1821439 C75.9240893,20.5162019 78.8801042,19.1832508 83.1299294,19.1832508 C88.9322738,19.1832508 91.8334025,22.2960835 91.8334025,28.5218422 L91.8334025,45.2466243 L89.5281583,45.2466243 Z M115.967898,38.5896435 C115.967898,40.8792173 115.09756,42.6394967 113.356856,43.8705346 C111.616153,45.1015726 109.146273,45.7170823 105.947143,45.7170823 C102.528464,45.7170823 99.8155167,45.1917428 97.8082192,44.141048 L97.8082192,41.6240977 C100.380069,42.9100226 103.093016,43.5529755 105.947143,43.5529755 C108.471947,43.5529755 110.389044,43.133488 111.698492,42.2945003 C113.00794,41.4555127 113.662654,40.3381861 113.662654,38.942487 C113.662654,37.6565621 113.141235,36.5745195 112.098381,35.6963268 C111.055527,34.8181341 109.342293,33.9556364 106.958627,33.1088078 C104.402459,32.1835691 102.606896,31.3877189 101.571883,30.7212334 C100.53687,30.0547479 99.756702,29.3020226 99.2313546,28.463035 C98.7060072,27.6240474 98.4433375,26.6008114 98.4433375,25.3932965 C98.4433375,23.4800911 99.2470285,21.9667996 100.854435,20.8533768 C102.461841,19.7399539 104.708255,19.1832508 107.593746,19.1832508 C110.35378,19.1832508 112.972636,19.7007495 115.450394,20.7357623 L114.580047,22.8528233 C112.070925,21.8178105 109.742181,21.3003119 107.593746,21.3003119 C105.508038,21.3003119 103.853611,21.645311 102.630414,22.3353195 C101.407217,23.025328 100.795628,23.9819164 100.795628,25.2051133 C100.795628,26.5380843 101.270001,27.6044451 102.218763,28.4042277 C103.167525,29.2040103 105.021895,30.0978716 107.781929,31.0858384 C110.087185,31.916985 111.765135,32.6657898 112.81583,33.3322753 C113.866524,33.9987608 114.654534,34.7554066 115.179881,35.6022352 C115.705228,36.4490639 115.967898,37.4448567 115.967898,38.5896435 L115.967898,38.5896435 Z M124.836032,34.0262009 L137.891241,19.6772317 L140.713989,19.6772317 L130.646188,30.5918575 L141.584337,45.2466243 L138.785111,45.2466243 L129.070154,32.3325521 L124.883077,36.1432619 L124.883077,45.2466243 L122.55431,45.2466243 L122.55431,8.64499154 L124.883077,8.64499154 L124.883077,26.9928537 L124.718417,34.0262009 L124.836032,34.0262009 Z M147.888474,19.6772317 L147.888474,36.2373535 C147.888474,38.8092035 148.429495,40.6792553 149.511554,41.8475652 C150.593613,43.0158751 152.271563,43.6000213 154.545455,43.6000213 C157.587765,43.6000213 159.826338,42.8316142 161.261243,41.2947771 C162.696147,39.7579399 163.413588,37.2566965 163.413588,33.7909719 L163.413588,19.6772317 L165.718832,19.6772317 L165.718832,45.2466243 L163.742909,45.2466243 L163.319496,41.7181893 L163.178359,41.7181893 C161.516066,44.3841313 158.560051,45.7170823 154.310226,45.7170823 C148.492199,45.7170823 145.58323,42.6042496 145.58323,36.3784909 L145.58323,19.6772317 L147.888474,19.6772317 Z" id="Íslensku"></path>
                    <path d="M5.23038605,72.0392279 L0,58.265878 L3.08841843,58.265878 L5.89041096,66.2733499 C6.37194097,67.6183131 6.66251507,68.7058904 6.76214197,69.5361146 L6.86176837,69.5361146 C6.93648854,68.9383532 7.22706264,67.8507758 7.73349938,66.2733499 L10.5354919,58.265878 L13.6488169,58.265878 L8.39352428,72.0392279 L5.23038605,72.0392279 Z M21.7559153,72.2882939 C19.613937,72.2882939 17.9389849,71.6635596 16.7310087,70.4140722 C15.5230326,69.1645849 14.9190535,67.4439711 14.9190535,65.2521793 C14.9190535,63.0022719 15.4794465,61.2339209 16.6002491,59.9470735 C17.7210517,58.660226 19.2610944,58.016812 21.2204234,58.016812 C23.0386143,58.016812 24.4748806,58.5689027 25.5292653,59.6731009 C26.5836499,60.777299 27.1108344,62.2965864 27.1108344,64.2310087 L27.1108344,65.8125778 L17.9327522,65.8125778 C17.9742634,67.1492387 18.3354055,68.1766257 19.0161893,68.8947696 C19.6969731,69.6129135 20.6558676,69.9719801 21.8929016,69.9719801 C22.7065213,69.9719801 23.4640895,69.8951855 24.1656289,69.741594 C24.8671683,69.5880026 25.6205854,69.3327125 26.4259029,68.9757161 L26.4259029,71.3542964 C25.7119101,71.6946883 24.9896259,71.9354497 24.2590286,72.0765878 C23.5284314,72.2177259 22.6940686,72.2882939 21.7559153,72.2882939 L21.7559153,72.2882939 Z M21.2204234,60.2334994 C20.2905724,60.2334994 19.5454573,60.5282245 18.985056,61.1176837 C18.4246547,61.7071428 18.0904945,62.566412 17.9825654,63.6955168 L24.234122,63.6955168 C24.2175176,62.5581097 23.9435477,61.6967651 23.4122042,61.111457 C22.8808608,60.526149 22.1502745,60.2334994 21.2204234,60.2334994 L21.2204234,60.2334994 Z M37.3474471,60.4825654 L33.985056,60.4825654 L33.985056,72.0392279 L31.0460772,72.0392279 L31.0460772,60.4825654 L28.7795766,60.4825654 L28.7795766,59.1127024 L31.0460772,58.2160648 L31.0460772,57.3194271 C31.0460772,55.6921878 31.4279746,54.4863053 32.1917808,53.7017435 C32.955587,52.9171816 34.1220345,52.5249066 35.6911582,52.5249066 C36.7206361,52.5249066 37.7334944,52.6951 38.7297634,53.0354919 L37.9576588,55.2521793 C37.2353638,55.0197166 36.546288,54.9034869 35.890411,54.9034869 C35.2262316,54.9034869 34.7426333,55.1089643 34.4396015,55.5199253 C34.1365697,55.9308862 33.985056,56.5473184 33.985056,57.3692403 L33.985056,58.265878 L37.3474471,58.265878 L37.3474471,60.4825654 Z M42.8268991,72.0392279 L37.5965131,58.265878 L40.6849315,58.265878 L43.486924,66.2733499 C43.968454,67.6183131 44.2590281,68.7058904 44.358655,69.5361146 L44.4582814,69.5361146 C44.5330016,68.9383532 44.8235757,67.8507758 45.3300125,66.2733499 L48.132005,58.265878 L51.24533,58.265878 L45.9900374,72.0392279 L42.8268991,72.0392279 Z M59.3524284,72.2882939 C57.2104501,72.2882939 55.5354979,71.6635596 54.3275218,70.4140722 C53.1195456,69.1645849 52.5155666,67.4439711 52.5155666,65.2521793 C52.5155666,63.0022719 53.0759595,61.2339209 54.1967621,59.9470735 C55.3175648,58.660226 56.8576075,58.016812 58.8169365,58.016812 C60.6351274,58.016812 62.0713936,58.5689027 63.1257783,59.6731009 C64.180163,60.777299 64.7073474,62.2965864 64.7073474,64.2310087 L64.7073474,65.8125778 L55.5292653,65.8125778 C55.5707765,67.1492387 55.9319186,68.1766257 56.6127024,68.8947696 C57.2934862,69.6129135 58.2523807,69.9719801 59.4894147,69.9719801 C60.3030344,69.9719801 61.0606026,69.8951855 61.762142,69.741594 C62.4636814,69.5880026 63.2170985,69.3327125 64.0224159,68.9757161 L64.0224159,71.3542964 C63.3084232,71.6946883 62.586139,71.9354497 61.8555417,72.0765878 C61.1249445,72.2177259 60.2905817,72.2882939 59.3524284,72.2882939 L59.3524284,72.2882939 Z M58.8169365,60.2334994 C57.8870854,60.2334994 57.1419704,60.5282245 56.5815691,61.1176837 C56.0211678,61.7071428 55.6870076,62.566412 55.5790785,63.6955168 L61.8306351,63.6955168 C61.8140306,62.5581097 61.5400608,61.6967651 61.0087173,61.111457 C60.4773738,60.526149 59.7467875,60.2334994 58.8169365,60.2334994 L58.8169365,60.2334994 Z M75.01868,58.016812 C75.6081391,58.016812 76.093813,58.0583225 76.4757161,58.141345 L76.1892902,60.8686177 C75.7741781,60.7689908 75.342468,60.7191781 74.8941469,60.7191781 C73.7235309,60.7191781 72.775014,61.1010755 72.0485679,61.8648817 C71.3221217,62.6286879 70.9589041,63.6207909 70.9589041,64.8412204 L70.9589041,72.0392279 L68.0323786,72.0392279 L68.0323786,58.265878 L70.3237858,58.265878 L70.7098381,60.6942715 L70.8592777,60.6942715 C71.315901,59.8723496 71.9115779,59.2206334 72.6463263,58.7391034 C73.3810747,58.2575733 74.1718513,58.016812 75.01868,58.016812 L75.01868,58.016812 Z M91.24533,64.9782067 C91.24533,67.2945321 90.6745595,69.0919405 89.5330012,70.3704857 C88.391443,71.6490309 86.7787568,72.2882939 84.6948941,72.2882939 C82.7438674,72.2882939 81.1747672,71.7237499 79.9875467,70.5946451 C78.8003262,69.4655402 78.2067248,67.9504039 78.2067248,66.0491905 C78.2067248,64.1313727 78.7505134,62.6141608 79.8381071,61.4975093 C80.9257007,60.3808578 82.3827223,59.8225405 84.2092154,59.8225405 C85.9858951,59.8225405 87.2353638,60.283308 87.9576588,61.2048568 L88.0572852,61.1550436 C87.5425462,59.5859199 86.6002559,58.1538047 85.2303861,56.858655 L82.117061,58.7266501 L81.0211706,57.0703611 L83.5616438,55.5884184 C82.8476511,55.0985862 82.1544243,54.6751782 81.4819427,54.3181818 L82.5280199,52.5 C83.6903337,53.0230412 84.7613068,53.6207936 85.7409714,54.2932752 L88.6176837,52.5747198 L89.7135741,54.1811955 L87.3723537,55.5884184 C88.6342944,56.7507323 89.5952644,58.1205816 90.2552927,59.6980075 C90.9153209,61.2754334 91.24533,63.0354822 91.24533,64.9782067 L91.24533,64.9782067 Z M88.256538,65.5386052 C88.256538,64.4842205 87.9431331,63.6457067 87.3163138,63.0230386 C86.6894946,62.4003705 85.832301,62.0890411 84.7447073,62.0890411 C83.4910689,62.0890411 82.5861381,62.4294279 82.0298879,63.1102117 C81.4736377,63.7909955 81.1955168,64.7872496 81.1955168,66.0990037 C81.1955168,67.3692467 81.5026951,68.3405944 82.117061,69.013076 C82.7314269,69.6855575 83.6073002,70.0217933 84.7447073,70.0217933 C85.9734391,70.0217933 86.8659167,69.6440469 87.4221669,68.888543 C87.9784171,68.133039 88.256538,67.0164042 88.256538,65.5386052 L88.256538,65.5386052 Z M97.4346202,72.0392279 L94.5080946,72.0392279 L94.5080946,52.6618929 L97.4346202,52.6618929 L97.4346202,72.0392279 Z M110.236613,72.0392279 L109.651308,70.1214197 L109.551681,70.1214197 C108.887502,70.9599461 108.219181,71.5307166 107.5467,71.8337484 C106.874218,72.1367803 106.010798,72.2882939 104.956413,72.2882939 C103.603148,72.2882939 102.546704,71.9230007 101.787049,71.1924035 C101.027393,70.4618062 100.647572,69.4281927 100.647572,68.0915318 C100.647572,66.6718484 101.174756,65.6008753 102.229141,64.8785803 C103.283525,64.1562853 104.889985,63.7619347 107.048568,63.6955168 L109.427148,63.620797 L109.427148,62.8860523 C109.427148,62.0060147 109.221671,61.3480719 108.81071,60.9122042 C108.399749,60.4763366 107.762561,60.258406 106.899128,60.258406 C106.193438,60.258406 105.516815,60.3621824 104.86924,60.5697385 C104.221666,60.7772945 103.599007,61.022207 103.001245,61.3044832 L102.054795,59.2123288 C102.801996,58.8221234 103.619755,58.5253227 104.508095,58.3219178 C105.396434,58.1185129 106.234948,58.016812 107.023661,58.016812 C108.775434,58.016812 110.097546,58.3987093 110.990037,59.1625156 C111.882528,59.9263218 112.328767,61.1259777 112.328767,62.7615193 L112.328767,72.0392279 L110.236613,72.0392279 Z M105.877958,70.0466999 C106.940645,70.0466999 107.793687,69.7498992 108.437111,69.1562889 C109.080535,68.5626786 109.402242,67.7303914 109.402242,66.6594022 L109.402242,65.4638854 L107.633873,65.5386052 C106.255701,65.5884187 105.25322,65.8188024 104.626401,66.2297634 C103.999582,66.6407243 103.686177,67.2696097 103.686177,68.1164384 C103.686177,68.7308042 103.868823,69.2061004 104.234122,69.5423412 C104.599421,69.878582 105.14736,70.0466999 105.877958,70.0466999 L105.877958,70.0466999 Z M126.127024,72.0392279 L125.716065,70.2334994 L125.566625,70.2334994 C125.159815,70.872772 124.580743,71.3750501 123.82939,71.7403487 C123.078037,72.1056473 122.220843,72.2882939 121.257783,72.2882939 C119.589033,72.2882939 118.343715,71.873188 117.521793,71.0429639 C116.699871,70.2127397 116.288917,68.954969 116.288917,67.2696139 L116.288917,58.265878 L119.240349,58.265878 L119.240349,66.7590286 C119.240349,67.8134133 119.456204,68.60419 119.88792,69.1313823 C120.319637,69.6585747 120.996259,69.9221669 121.917808,69.9221669 C123.14654,69.9221669 124.049395,69.5547982 124.626401,68.8200498 C125.203407,68.0853014 125.491905,66.8545126 125.491905,65.1276463 L125.491905,58.265878 L128.430884,58.265878 L128.430884,72.0392279 L126.127024,72.0392279 Z M144.719801,72.0392279 L141.780822,72.0392279 L141.780822,63.5709838 C141.780822,62.5082969 141.567042,61.7154447 141.139477,61.1924035 C140.711912,60.6693623 140.033213,60.4078456 139.103362,60.4078456 C137.866328,60.4078456 136.961398,60.7731387 136.388543,61.503736 C135.815688,62.2343333 135.529265,63.4588955 135.529265,65.1774595 L135.529265,72.0392279 L132.60274,72.0392279 L132.60274,58.265878 L134.894147,58.265878 L135.305106,60.0716065 L135.454545,60.0716065 C135.869658,59.4157294 136.459108,58.9093002 137.222914,58.5523039 C137.98672,58.1953075 138.833536,58.016812 139.763387,58.016812 C143.067679,58.016812 144.719801,59.6979907 144.719801,63.0603985 L144.719801,72.0392279 Z M151.718555,72.0392279 L148.79203,72.0392279 L148.79203,58.265878 L151.718555,58.265878 L151.718555,72.0392279 Z M148.617684,54.617061 C148.617684,54.0940198 148.760895,53.6913671 149.047323,53.4090909 C149.33375,53.1268147 149.742629,52.9856787 150.273973,52.9856787 C150.788712,52.9856787 151.189289,53.1268147 151.475716,53.4090909 C151.762143,53.6913671 151.905355,54.0940198 151.905355,54.617061 C151.905355,55.1151955 151.762143,55.5074705 151.475716,55.7938979 C151.189289,56.0803252 150.788712,56.2235367 150.273973,56.2235367 C149.742629,56.2235367 149.33375,56.0803252 149.047323,55.7938979 C148.760895,55.5074705 148.617684,55.1151955 148.617684,54.617061 L148.617684,54.617061 Z M168.019925,72.0392279 L165.080946,72.0392279 L165.080946,63.5709838 C165.080946,62.5082969 164.867167,61.7154447 164.439601,61.1924035 C164.012036,60.6693623 163.333338,60.4078456 162.403487,60.4078456 C161.166453,60.4078456 160.261522,60.7731387 159.688667,61.503736 C159.115813,62.2343333 158.82939,63.4588955 158.82939,65.1774595 L158.82939,72.0392279 L155.902864,72.0392279 L155.902864,58.265878 L158.194271,58.265878 L158.60523,60.0716065 L158.75467,60.0716065 C159.169782,59.4157294 159.759232,58.9093002 160.523039,58.5523039 C161.286845,58.1953075 162.133661,58.016812 163.063512,58.016812 C166.367804,58.016812 168.019925,59.6979907 168.019925,63.0603985 L168.019925,72.0392279 Z" id="vefverðlaunin"></path>
                    <path d="M34.0894149,137.902367 L0,137.902367 L0,134.623822 L14.4926583,119.497808 C18.5660223,115.275419 21.4223017,112.046581 23.0615823,109.811199 C24.7008629,107.575816 25.9054677,105.439816 26.6754328,103.403134 C27.445398,101.366452 27.8303748,99.2304517 27.8303748,96.995069 C27.8303748,93.7413454 26.7623746,91.0961823 24.6263423,89.0595003 C22.49031,87.0228184 19.7209608,86.0044927 16.3182117,86.0044927 C11.7729337,86.0044927 7.4264215,87.6561673 3.27854482,90.9595661 L1.2667105,88.3888889 C5.81198854,84.5639008 10.8539426,82.6514355 16.3927241,82.6514355 C21.1367028,82.6514355 24.868494,83.9181333 27.5882095,86.451567 C30.3079251,88.9850006 31.6677624,92.474629 31.6677624,96.9205567 C31.6677624,100.522006 30.7549949,104.005425 28.9294324,107.370918 C27.1038699,110.736411 23.7694741,114.890435 18.9261451,119.833114 L4.95507342,134.176748 L4.95507342,134.325773 L34.0894149,134.325773 L34.0894149,137.902367 Z M78.6478194,110.519066 C78.6478194,120.081537 77.1886332,127.160142 74.270217,131.755095 C71.3518007,136.350049 66.9369862,138.647491 61.025641,138.647491 C55.3378341,138.647491 51.0161591,136.281746 48.0604865,131.550186 C45.1048139,126.818626 43.6269998,119.808323 43.6269998,110.519066 C43.6269998,101.031109 45.0613488,94.0021779 47.9300899,89.4320622 C50.7988309,84.8619466 55.163971,82.5769231 61.025641,82.5769231 C66.7631231,82.5769231 71.1344725,84.9426676 74.1398203,89.6742275 C77.1451681,94.4057874 78.6478194,101.353998 78.6478194,110.519066 L78.6478194,110.519066 Z M47.6506684,110.519066 C47.6506684,118.963845 48.7559244,125.204195 50.9664694,129.240302 C53.1770145,133.27641 56.5300382,135.294433 61.025641,135.294433 C65.7199446,135.294433 69.1412706,133.208108 71.2897217,129.035393 C73.4381728,124.862679 74.5123822,118.690632 74.5123822,110.519066 C74.5123822,102.471689 73.4381728,96.3617346 71.2897217,92.1890204 C69.1412706,88.0163061 65.7199446,85.9299803 61.025641,85.9299803 C56.3313375,85.9299803 52.9286394,88.0163061 50.8174447,92.1890204 C48.7062499,96.3617346 47.6506684,102.471689 47.6506684,110.519066 L47.6506684,110.519066 Z M108.303748,137.902367 L104.652641,137.902367 L104.652641,98.2245233 C104.652641,94.6230735 104.801664,90.8850731 105.099715,87.0104098 C104.727151,87.3829736 104.342175,87.7431132 103.944773,88.0908394 C103.547372,88.4385655 99.7100225,91.4562869 92.4326101,97.1440938 L90.3090072,94.4989042 L105.099715,83.4338155 L108.303748,83.4338155 L108.303748,137.902367 Z M146.454087,105.154175 C152.266082,105.154175 156.842338,106.557477 160.182994,109.364124 C163.523649,112.170772 165.193951,116.032958 165.193951,120.9508 C165.193951,126.539257 163.455346,130.885769 159.978085,133.990467 C156.500823,137.095165 151.707241,138.647491 145.597195,138.647491 C142.889898,138.647491 140.319247,138.380491 137.885163,137.846483 C135.45108,137.312475 133.414429,136.54873 131.775148,135.555227 L131.775148,131.717839 C134.457607,133.083906 136.841979,134.03393 138.928337,134.567938 C141.014694,135.101946 143.237624,135.368946 145.597195,135.368946 C150.366011,135.368946 154.190942,134.108457 157.072102,131.587442 C159.953262,129.066428 161.39382,125.65752 161.39382,121.360618 C161.39382,117.312092 159.990517,114.132928 157.18387,111.823033 C154.377223,109.513138 150.564711,108.358207 145.74622,108.358207 C142.517334,108.358207 139.139473,108.842533 135.612536,109.811199 L133.377164,108.358207 L135.538023,83.4338155 L161.766382,83.4338155 L161.766382,87.0104098 L139.040105,87.0104098 L137.363577,106.234604 C141.23824,105.514314 144.26838,105.154175 146.454087,105.154175 L146.454087,105.154175 Z" id="2015"></path>
                </g>
            </g>
        </g>
    </g>
</svg>
