<svg class="svg-swirl" viewBox="0 0 65 58" version="1.1" xmlns="http://www.w3.org/2000/svg" xmlns:xlink="http://www.w3.org/1999/xlink">
  <g stroke="none" stroke-width="1" fill="none" fill-rule="evenodd">
    <g id="Group" fill="#56A3A6">
      <path d="M51.4324841,4.6392767 L50.0196729,6.72459294 C60.006161,12.6082354 64.633849,24.1075804 61.270733,34.6866968 C59.6804379,39.6952691 56.0944588,43.8247573 51.1743259,46.317503 C46.2521762,48.8082416 40.5858047,49.3621851 35.2199456,47.8769743 C26.4929873,45.4635067 21.5002474,36.8793897 24.0868719,28.7368219 C26.1128089,22.3554331 33.3291382,18.7016138 40.1683145,20.5952576 C42.7519136,21.3107679 44.8837359,22.9194118 46.167468,25.1291646 C47.4512002,27.3389174 47.7375945,29.8818391 46.9711872,32.2902891 C45.7479609,36.141802 41.3975914,38.3455336 37.2710934,37.2045305 C34.1096635,36.3304639 32.2995306,33.2195494 33.237371,30.2702017 C33.5812459,29.1894098 34.3537037,28.2992868 35.4155811,27.7634067 C36.4764501,27.2235125 37.6996764,27.1040935 38.8543294,27.4262237 C39.7135123,27.6630546 40.4204221,28.1979312 40.8479967,28.9325085 C41.2745628,29.6660822 41.3693553,30.5110467 41.1132139,31.3118563 C40.7350525,32.5030355 39.3877892,33.1864332 38.1121245,32.8331938 L37.3608437,35.1974889 C40.0341932,35.9380872 42.8567904,34.5090736 43.6484084,32.0123138 C44.1032106,30.5792861 43.9337943,29.0679838 43.1714208,27.7563821 C42.4080388,26.4417698 41.14145,25.4854145 39.6046018,25.0599217 C37.771275,24.5531436 35.8350882,24.7418056 34.1550429,25.5927912 C32.4709638,26.4457839 31.2457206,27.8567341 30.7021766,29.5677371 C29.3508796,33.8216618 31.9606979,38.3073999 36.5218295,39.569829 C42.0429869,41.0971877 47.867682,38.1468365 49.5063817,32.9937572 C50.4734667,29.9520856 50.1124485,26.7418225 48.4919006,23.9520347 C47.417922,22.108567 45.8760316,20.5972646 44.0124519,19.5234973 C42.8920855,11.4521795 38.0274163,4.33721694 30.6688983,0 L29.2570955,2.08531624 C34.9275007,5.42704054 38.9652568,10.5831305 40.6876562,16.5460511 C38.6828962,14.2309286 36.2717387,12.2188694 33.5923386,10.6403311 L32.1835611,12.7256474 C34.4726985,14.0763864 36.5419981,15.7813682 38.300701,17.7322127 C34.6421149,17.3308044 31.0410092,18.1687443 28.0651306,19.9499937 C26.5302992,16.8962799 23.6532467,14.5580764 20.1570179,13.5916858 C11.9201569,11.3126901 3.23051047,15.7131288 0.788091591,23.4000982 C-0.769933668,28.3043044 0.00454102382,33.6089154 2.91285484,37.9521535 L2.97033538,37.9200408 C2.38342878,46.0716404 7.88845136,53.8268492 16.6295277,56.2443308 C24.7605035,58.4942245 33.4733438,56.5223061 39.593509,51.1012867 C44.0164856,51.3892971 48.4424875,50.5051953 52.4348641,48.4841044 C57.9751818,45.6792637 62.0129379,41.0269413 63.804919,35.3871543 C67.5018256,23.7543411 62.4122764,11.1109824 51.4324841,4.6392767 L51.4324841,4.6392767 Z M24.0788044,43.1493878 C22.5853187,43.6090003 20.9819141,43.6360954 19.4319563,43.2055849 C16.2715348,42.3325218 14.4634188,39.2216073 15.3982339,36.2712561 C15.7431172,35.1924713 16.515575,34.3013448 17.576444,33.7644612 C18.5596638,33.2667148 19.6820471,33.132243 20.7640931,33.369074 C20.7913207,35.2366262 21.1422546,37.0630341 21.7664731,38.7941075 C21.2975529,38.9506567 20.7751858,38.9737377 20.2729874,38.8352518 L19.5206982,41.2005504 C20.6198875,41.5026101 21.7624394,41.4474165 22.784988,41.0791243 C23.1661748,41.7926276 23.5977831,42.4860605 24.0788044,43.1493878 L24.0788044,43.1493878 Z M3.32328609,24.0995522 C5.35124,17.7171599 12.5665609,14.0643441 19.4067455,15.9559809 C22.3664893,16.7748539 24.7675625,18.8350821 25.9080975,21.5034439 C24.94908,22.3313486 24.0959478,23.2756617 23.3769368,24.3223339 C23.2771021,24.2922282 23.1802928,24.2581085 23.0814666,24.2330205 C23.016927,24.2129501 22.9503706,24.1989008 22.8828058,24.1818409 C22.3059835,22.3945704 20.7893039,20.9595356 18.8430328,20.4236555 C17.009706,19.9148705 15.0735193,20.1055394 13.3914571,20.9555215 C11.7093949,21.8065072 10.4841517,23.2174574 9.94060761,24.9304675 C9.79741046,25.3870694 9.6965674,25.8547101 9.63908686,26.3243579 C6.90523154,28.1306953 4.7744177,30.7609234 3.73674263,33.97219 C2.45200206,30.8361874 2.28460258,27.367016 3.32328609,24.0995522 L3.32328609,24.0995522 Z M19.5902799,23.6610136 C17.2829907,23.532563 15.0200725,23.8858023 12.9406886,24.6544992 C13.3501114,24.0172635 13.9329843,23.4884081 14.6519953,23.1251335 C15.7138727,22.5862429 16.9350822,22.4668239 18.0927605,22.7889541 C18.6756334,22.9485139 19.1879161,23.2586018 19.5902799,23.6610136 L19.5902799,23.6610136 Z M17.3798001,53.8800358 C8.65485861,51.4655647 3.66211877,42.8794407 6.24773479,34.7388799 C8.25451166,28.4217164 15.3457956,24.7819464 22.1224491,26.546136 C21.9056365,27.027826 21.7150432,27.5235652 21.5516774,28.0353609 C21.2501566,28.983688 21.0414115,29.9350257 20.9153577,30.8833529 C19.3411975,30.6364868 17.7388013,30.8773318 16.3159058,31.5968562 C14.634852,32.4478419 13.4096088,33.8607992 12.8640479,35.5718021 C11.5127509,39.8247233 14.1225693,44.3114649 18.6796671,45.5728905 C21.0293104,46.2221685 23.5564374,46.0676263 25.7880943,45.1714822 C28.05908,47.4936293 31.0097479,49.2859175 34.4666479,50.2422728 C35.0122089,50.3938045 35.5638204,50.5202481 36.1184572,50.6346495 C30.8322641,54.4309687 23.8972869,55.6823592 17.3798001,53.8800358 L17.3798001,53.8800358 Z" id="Shape"></path>
    </g>
  </g>
</svg>
